<svg width="404" height="272" viewBox="0 0 404 272" fill="none" xmlns="http://www.w3.org/2000/svg">
<path d="M320.643 163.419L319.859 171.04C317.819 176.003 315.781 180.964 313.744 185.921C313.032 187.662 312.318 189.4 311.601 191.134C311.275 191.946 310.814 192.693 310.237 193.343C310.208 193.387 310.17 193.424 310.126 193.45C310.081 193.477 310.031 193.493 309.98 193.497C309.807 193.497 309.745 193.262 309.732 193.086C309.634 191.207 309.414 189.336 309.072 187.486C307.164 178.553 296.979 175.279 288.99 175.482C285.794 175.531 282.645 176.274 279.753 177.66C275.582 179.716 273.956 185.434 273.735 185.646L273.558 186.381L270.697 198.516C270.095 201.221 269.635 202.651 267.181 203.372C267.102 203.4 264.657 204.725 264.578 204.725C263.63 204.996 266.225 204.414 265.197 204.238L261.943 203.72L260.557 203.395L240.333 198.52C241.117 198.656 241.918 198.804 242.733 198.971L247.427 200.112L246.187 194.051C242.959 175.184 248.308 158.066 257.422 148.772C259.822 146.328 261.013 145.701 263.811 144.073L265.383 147.866C265.383 147.866 281.467 152.75 285.257 137.765C286.789 137.9 289.734 137.878 291.253 138.216C299.17 139.906 306.321 144.204 311.601 150.445C312.066 150.986 312.522 151.546 312.973 152.114L313.213 152.411C313.491 152.768 313.788 153.133 314.067 153.498L314.266 153.787C316.581 156.864 318.711 160.08 320.643 163.419Z" fill="#353642"/>
<path d="M129.539 84.5418C132.09 71.5547 142.922 58.9734 173.857 56.0918C242.618 49.693 205.448 30.3881 227.837 9.26143C250.226 -11.8652 334.88 22.8934 312.734 77.1779C290.589 131.462 363.694 71.212 394.656 139.972C399.141 149.95 401.301 160.849 400.966 171.817C400.576 183.407 397.645 194.76 392.389 205.047C382.501 224.717 364.132 242.241 337.568 253.1C333.647 254.726 329.544 256.189 325.257 257.487" stroke="#CCDDE2" stroke-width="4.52" stroke-miterlimit="10"/>
<path d="M347.354 191.352C346.818 197.724 342.576 198.761 342.576 198.761C338.989 200.921 333.48 198.599 332.369 194.549C332.353 194.506 332.344 194.46 332.342 194.414C331.457 190.946 329.73 186.491 327.409 181.616C322.937 170.595 317.123 159.484 309.666 150.695C304.385 144.454 297.235 140.157 289.318 138.466C289.291 138.466 289.278 138.438 289.252 138.438C278.752 135.219 273.642 128.644 271.428 122.34C271.428 122.34 271.428 122.34 271.428 122.313C270.48 118.331 269.515 114.448 270.033 112.099C270.919 107.982 271.362 103.531 270.259 102.629C268.873 101.448 266.367 102.322 259.99 103.63C254.468 104.785 251.523 104.131 250.859 100.695C250.754 100.162 250.7 99.619 250.7 99.0757C250.673 99.4184 249.371 98.0565 249.309 98.3812C248.893 100.135 248.06 100.839 246.245 101.61C243.548 102.751 242.445 107.157 242.047 110.092C241.631 113.217 243.012 117.528 244.106 120.464C242.707 118.836 241.104 119.025 238.597 120.013C237.969 120.256 236.383 120.189 235.13 119.742C235.307 119.588 235.516 119.475 235.741 119.413C236.144 119.278 233.221 117.799 233.647 117.704C237.902 116.726 240.289 113.113 239.784 109.934C238.531 101.93 240.2 92.5144 245.51 86.2779C251.364 79.4191 260.915 77.9941 269.001 81.1326C275.351 83.5903 281.356 88.6318 283.557 95.3554C283.557 95.3824 283.557 95.4095 283.583 95.4365C283.863 96.2915 284.078 97.1677 284.226 98.0565C285.036 103.057 283.304 108.126 282.344 113.068C281.998 114.85 282.875 116.793 283.061 118.205C284.128 126.682 293.737 129.077 301.341 132.675C317.322 140.256 330.372 153.216 339.149 168.976C344.976 179.411 347.057 186.527 347.354 191.352Z" fill="#3FBDF1"/>
<path d="M263.103 142.392C262.93 142.487 262.758 142.582 262.598 142.69C259.728 144.365 257.089 146.421 254.751 148.805C245.643 158.099 240.293 175.216 243.521 194.084L244.761 200.113" stroke="black" stroke-width="4.52" stroke-miterlimit="10"/>
<path d="M343.696 268.99C343.698 254.904 342.502 240.846 340.123 226.971C338.531 217.556 336.339 208.258 333.56 199.134C331.891 193.592 329.849 187.612 327.423 181.61C325.169 175.993 322.566 170.529 319.629 165.25C316.781 160.081 313.449 155.205 309.679 150.689C304.399 144.448 297.248 140.15 289.331 138.46C287.813 138.132 286.276 137.897 284.73 137.756" stroke="black" stroke-width="4.52" stroke-miterlimit="10"/>
<path d="M180.021 146.411L179.795 146.37C177.091 145.909 174.316 146.146 171.725 147.06C169.134 147.974 166.81 149.535 164.965 151.601L149.821 168.403L148.049 170.387C147.939 170.509 147.835 170.637 147.739 170.771" stroke="black" stroke-width="4.52" stroke-miterlimit="10"/>
<path d="M158.15 175.157L166.462 165.769L166.475 165.755" stroke="black" stroke-width="4.52" stroke-miterlimit="10"/>
<path d="M230.454 223.651L269.55 237.68C273.316 239.031 277.322 239.541 281.298 239.175C285.274 238.808 289.126 237.574 292.592 235.556C296.058 233.539 299.056 230.784 301.383 227.481C303.71 224.178 305.312 220.404 306.079 216.414L315.329 168.325C315.803 165.856 315.78 163.315 315.265 160.854C314.749 158.394 313.749 156.065 312.327 154.008C311.93 153.428 311.498 152.874 311.034 152.348" stroke="black" stroke-width="4.52" stroke-miterlimit="10"/>
<path d="M204.58 221.713C199.602 225.136 195.945 235.53 194.001 242.353C193.668 243.497 192.979 244.501 192.039 245.213C191.098 245.925 189.956 246.308 188.784 246.303C187.991 246.303 187.207 246.128 186.486 245.789C185.38 245.261 184.482 244.369 183.936 243.257C183.389 242.145 183.227 240.878 183.475 239.661C186.73 223.454 198.216 191.459 237.676 198.512C238.464 198.647 239.266 198.796 240.076 198.963L244.761 200.113L257.9 203.373L261.442 204.244C262.786 204.576 264.194 204.524 265.512 204.095C265.593 204.079 265.673 204.056 265.751 204.027C266.964 203.603 268.053 202.875 268.916 201.908C269.779 200.941 270.389 199.769 270.688 198.499L273.677 185.836L273.85 185.101L277.765 168.547" stroke="black" stroke-width="4.52" stroke-miterlimit="10"/>
<path d="M185.335 169.822H171.944C170.417 169.822 168.953 169.204 167.874 168.106C166.794 167.006 166.187 165.515 166.187 163.96C166.187 162.405 166.794 160.914 167.874 159.815C168.953 158.716 170.417 158.098 171.944 158.098H190.914" stroke="black" stroke-width="4.52" stroke-miterlimit="10"/>
<path d="M175.057 169.819C174.866 172.209 173.972 173.976 172.652 175.198C169.251 178.355 163.021 177.994 158.686 175.834" stroke="black" stroke-width="4.52" stroke-miterlimit="10"/>
<path d="M149.838 168.397C145.999 163.671 146.783 157.263 149.763 152.312C158.217 138.261 177.532 140.957 190.06 146.797C200.209 151.514 209.101 158.603 217.758 165.674C221.987 169.128 226.141 172.726 230.157 176.496C230.894 177.176 231.773 177.676 232.728 177.959C233.683 178.243 234.688 178.302 235.668 178.133C236.649 177.964 237.579 177.57 238.388 176.982C239.198 176.394 239.866 175.627 240.342 174.738C242.556 170.575 244.952 166.034 245.403 164.776" stroke="black" stroke-width="4.52" stroke-miterlimit="10"/>
<path d="M172.657 175.198C172.657 175.198 192.633 186.233 207.471 202.088" stroke="black" stroke-width="4.52" stroke-miterlimit="10"/>
<path d="M199.704 227.698C197.49 231.549 199.394 237.204 203.579 238.556C208.923 240.312 214.574 240.889 220.154 240.247C226.243 239.526 230.29 234.408 232.956 228.546C233.149 228.109 233.249 227.636 233.251 227.158C233.253 226.68 233.156 226.206 232.966 225.769C232.777 225.331 232.499 224.939 232.151 224.618C231.802 224.297 231.392 224.054 230.945 223.905C230.14 223.635 229.264 223.684 228.492 224.043C227.721 224.401 227.11 225.043 226.783 225.84C225.897 227.923 224.529 230.53 222.713 231.702" stroke="black" stroke-width="4.52" stroke-miterlimit="10"/>
<path d="M210.133 226.976C210.133 226.976 204.664 232.964 208.977 239.305C209.167 239.571 209.39 239.811 209.641 240.017" stroke="black" stroke-width="4.52" stroke-miterlimit="10"/>
<path d="M217.346 227.964C217.346 227.964 212.289 239.553 218.777 240.401" stroke="black" stroke-width="4.52" stroke-miterlimit="10"/>
<path d="M396.888 269H83.7075" stroke="black" stroke-width="4.52" stroke-miterlimit="10"/>
<path d="M206.914 247.159H175.681C175.364 250.162 173.968 252.939 171.76 254.955C169.553 256.972 166.691 258.085 163.725 258.081H58.7502C58.756 260.973 59.8865 263.744 61.8943 265.788C63.9016 267.832 66.6227 268.984 69.4621 268.99H206.914C209.757 268.988 212.485 267.84 214.499 265.796C216.513 263.751 217.65 260.977 217.661 258.081V250.749C217.661 249.792 217.287 248.874 216.623 248.198C215.959 247.522 215.058 247.141 214.118 247.141L206.914 247.159Z" stroke="black" stroke-width="4.52" stroke-miterlimit="10"/>
<path d="M158.686 175.834C159.606 177.131 160.268 178.599 160.634 180.154L175.429 242.989C175.756 244.353 175.841 245.765 175.681 247.16C175.364 250.162 173.968 252.939 171.76 254.956C169.553 256.972 166.691 258.086 163.725 258.082H56.8018C54.1014 258.081 51.4795 257.155 49.3597 255.451C47.2395 253.748 45.7445 251.367 45.1157 248.693L30.3477 185.863C29.923 184.064 29.9049 182.191 30.2941 180.383C30.6833 178.576 31.4698 176.882 32.595 175.429C33.7197 173.977 35.1536 172.802 36.7885 171.995C38.4234 171.188 40.2168 170.769 42.0337 170.77H148.948C150.704 170.767 152.44 171.158 154.031 171.917C155.622 172.675 157.028 173.782 158.15 175.158L158.686 175.834Z" stroke="black" stroke-width="4.52" stroke-miterlimit="10"/>
<path d="M141.938 97.6372C141.256 96.821 140.539 96.0364 139.791 95.2743C135.591 90.9831 130.601 87.5789 125.106 85.257C119.611 82.9355 113.72 81.7424 107.77 81.746H51.7182C45.7707 81.7433 39.8807 82.9347 34.3853 85.2516C28.8899 87.5685 23.8971 90.9655 19.6917 95.2486C15.4862 99.5316 12.1509 104.616 9.87632 110.213C7.60173 115.809 6.43246 121.807 6.43539 127.864V128.193C6.42967 132.49 7.50444 136.718 9.55727 140.472C11.8641 142.865 14.6177 144.763 17.6558 146.055C20.694 147.348 23.9554 148.008 27.2479 147.998H82.202C83.8789 147.998 85.4872 148.677 86.6731 149.884C87.859 151.092 88.5254 152.73 88.5254 154.438C88.5276 156.148 89.1963 157.787 90.3844 158.995C91.5725 160.203 93.183 160.882 94.8622 160.882H94.9995L108.567 160.53C108.567 160.395 108.541 160.273 108.541 160.151C107.368 159.741 106.35 158.967 105.63 157.939C104.91 156.91 104.524 155.678 104.525 154.415V154.118C104.526 152.41 105.192 150.773 106.378 149.566C107.564 148.358 109.171 147.679 110.848 147.678H124.226C130.802 147.678 137.11 145.018 141.76 140.282C146.411 135.546 149.024 129.123 149.024 122.426C149.047 113.642 146.587 105.036 141.938 97.6372ZM44.8722 124.356C42.7276 124.356 40.6309 123.709 38.8476 122.497C37.0639 121.284 35.6739 119.559 34.8529 117.542C34.0324 115.524 33.8176 113.304 34.2361 111.162C34.6546 109.02 35.6872 107.053 37.2043 105.509C38.721 103.965 40.6534 102.914 42.7568 102.488C44.8602 102.063 47.0402 102.283 49.0214 103.12C51.0022 103.957 52.6946 105.373 53.8849 107.19C55.0752 109.006 55.7098 111.142 55.708 113.325C55.7045 116.25 54.5615 119.055 52.5303 121.122C50.4987 123.19 47.7443 124.353 44.8722 124.356ZM80.2403 124.356C78.0961 124.355 76.0003 123.706 74.2179 122.492C72.4355 121.278 71.0469 119.553 70.2276 117.535C69.408 115.518 69.1945 113.298 69.6139 111.156C70.0332 109.015 71.0672 107.049 72.5843 105.506C74.1014 103.963 76.0335 102.912 78.1369 102.488C80.2403 102.063 82.4198 102.284 84.4001 103.121C86.3804 103.958 88.0729 105.374 89.2627 107.19C90.4526 109.007 91.0867 111.142 91.0849 113.325C91.0849 114.775 90.8042 116.21 90.2591 117.549C89.714 118.889 88.9151 120.105 87.9077 121.13C86.9007 122.154 85.7051 122.966 84.3895 123.52C83.0739 124.073 81.6639 124.357 80.2403 124.356ZM113.926 124.356C111.781 124.354 109.686 123.704 107.905 122.49C106.123 121.276 104.735 119.55 103.916 117.532C103.097 115.515 102.884 113.295 103.304 111.154C103.724 109.013 104.758 107.047 106.275 105.504C107.793 103.962 109.725 102.912 111.828 102.488C113.931 102.064 116.111 102.284 118.091 103.121C120.071 103.958 121.763 105.374 122.953 107.191C124.142 109.007 124.776 111.142 124.775 113.325C124.775 114.775 124.494 116.211 123.948 117.55C123.403 118.89 122.604 120.107 121.596 121.131C120.588 122.156 119.392 122.968 118.076 123.521C116.76 124.074 115.349 124.358 113.926 124.356Z" fill="#D7E8F0"/>
<path d="M149.024 122.43C149.024 129.127 146.411 135.551 141.76 140.286C137.11 145.022 130.802 147.683 124.226 147.683H110.857C109.181 147.684 107.574 148.362 106.388 149.569C105.203 150.775 104.536 152.411 104.533 154.118V154.415C104.532 155.678 104.919 156.91 105.639 157.939C106.359 158.967 107.377 159.741 108.55 160.151C109.168 160.37 109.818 160.48 110.472 160.476L108.576 160.53L94.9995 160.882H94.8533C93.175 160.882 91.5654 160.204 90.3773 158.997C89.1892 157.789 88.5201 156.152 88.5166 154.442C88.5166 152.734 87.8506 151.096 86.6643 149.889C85.4784 148.681 83.8701 148.003 82.1931 148.003H27.248C20.6711 148.003 14.3637 145.342 9.71315 140.607C5.06265 135.871 2.45001 129.448 2.45001 122.75V122.421C2.45059 116.368 3.62189 110.375 5.89697 104.783C8.17205 99.1911 11.5064 94.1104 15.7097 89.8309C19.9129 85.5515 24.9028 82.1568 30.3942 79.8412C35.8856 77.5256 41.7716 76.3338 47.7151 76.3347H103.75C115.755 76.3356 127.269 81.1922 135.759 89.8363C144.249 98.4804 149.02 110.204 149.024 122.43Z" stroke="black" stroke-width="4.52" stroke-miterlimit="10"/>
<path d="M289.318 138.446C289.291 138.446 289.278 138.419 289.251 138.419C278.752 135.199 273.642 128.624 271.428 122.32C271.428 122.32 271.428 122.32 271.428 122.293C269.696 117.378 269.736 112.62 270.361 109.779C270.734 108.275 270.972 106.738 271.069 105.189C271.215 100.801 268.054 101.874 259.011 103.71C254.858 104.566 252.201 102.961 250.872 100.679C250.743 100.48 250.63 100.271 250.536 100.052C249.916 98.7244 249.659 97.2508 249.792 95.7866" stroke="black" stroke-width="4.52" stroke-miterlimit="10"/>
<path d="M244.589 121.058C244.429 120.828 244.265 120.607 244.106 120.431C242.707 118.803 241.104 118.993 238.597 119.98C237.968 120.224 236.383 120.156 235.13 119.71C234.076 119.327 233.288 118.664 233.647 117.672C233.739 117.467 233.876 117.288 234.047 117.146C234.218 117.005 234.419 116.905 234.634 116.855C235.052 116.748 235.474 116.662 235.9 116.598C240.2 115.62 239.239 110.551 238.717 107.372C237.45 99.3724 239.133 89.9567 244.496 83.7202C250.403 76.8613 260.065 75.4318 268.226 78.5704C275.404 81.3301 282.157 87.3187 283.557 95.3229C283.557 95.35 283.557 95.377 283.583 95.4041C283.61 95.4311 283.583 95.4717 283.583 95.4988C284.411 100.5 283.583 105.92 282.622 110.867C282.047 113.798 282.264 116.193 283.065 118.172C285.576 124.652 294.047 126.911 300.875 130.118C317.034 137.698 330.199 150.658 339.073 166.419C346.079 178.919 347.739 186.607 347.354 191.351C346.818 197.723 342.576 198.76 342.576 198.76C338.989 200.92 333.476 198.598 332.369 194.548C332.352 194.505 332.344 194.459 332.342 194.413C331.457 190.945 329.73 186.49 327.409 181.615" stroke="black" stroke-width="4.52" stroke-miterlimit="10"/>
<path d="M249.774 95.7866C249.774 98.1991 248.658 100.58 246.231 101.595C243.504 102.74 242.397 105.757 241.998 108.693C241.441 112.991 242.349 117.354 244.571 121.053C246.63 124.534 249.982 128.372 254.729 128.372C263.426 128.372 267.155 124.101 267.155 124.101" stroke="black" stroke-width="4.52" stroke-miterlimit="10"/>
<path d="M258.803 110.078C259.62 110.078 260.282 109.404 260.282 108.572C260.282 107.74 259.62 107.065 258.803 107.065C257.986 107.065 257.324 107.74 257.324 108.572C257.324 109.404 257.986 110.078 258.803 110.078Z" fill="black"/>
<path d="M245.793 110.957C246.61 110.957 247.272 110.283 247.272 109.451C247.272 108.619 246.61 107.944 245.793 107.944C244.976 107.944 244.314 108.619 244.314 109.451C244.314 110.283 244.976 110.957 245.793 110.957Z" fill="black"/>
<path d="M252.174 107.155C252.174 107.155 251.435 113.103 251.731 113.919C252.028 114.736 253.879 113.802 253.879 113.802" stroke="black" stroke-width="4.52" stroke-miterlimit="10"/>
<path d="M254.915 119.006C258.081 120.192 261.349 118.681 262.306 115.781" stroke="black" stroke-width="4.52" stroke-miterlimit="10"/>
<path d="M266.458 110.748C268.606 107.652 267.823 103.326 264.709 101.086C261.595 98.8453 257.329 99.5389 255.181 102.635C253.034 105.731 253.817 110.057 256.931 112.297C260.045 114.537 264.311 113.844 266.458 110.748Z" stroke="black" stroke-width="4.52" stroke-miterlimit="10"/>
<path d="M249.163 111.634C251.311 108.538 250.527 104.212 247.413 101.972C244.299 99.7314 240.034 100.425 237.886 103.521C235.738 106.617 236.522 110.943 239.636 113.183C242.75 115.423 247.015 114.73 249.163 111.634Z" stroke="black" stroke-width="4.52" stroke-miterlimit="10"/>
<path d="M243.402 102.796C244.632 102.792 245.817 103.263 246.721 104.112C247.625 104.962 248.179 106.128 248.273 107.378C248.322 107.998 248.248 108.622 248.055 109.212C247.861 109.803 247.553 110.347 247.148 110.814C246.739 111.286 246.24 111.67 245.681 111.941C245.123 112.212 244.516 112.365 243.898 112.392H243.65C242.419 112.396 241.233 111.925 240.329 111.074C239.426 110.223 238.872 109.056 238.779 107.806C238.731 107.185 238.806 106.561 239 105.971C239.194 105.38 239.503 104.836 239.908 104.37C240.318 103.899 240.816 103.516 241.374 103.245C241.931 102.974 242.537 102.819 243.154 102.791H243.402V102.796ZM243.402 101.772H243.105C242.359 101.806 241.627 101.993 240.952 102.32C240.278 102.648 239.675 103.11 239.179 103.68C238.684 104.249 238.305 104.915 238.067 105.636C237.829 106.357 237.735 107.119 237.791 107.878C237.911 109.382 238.581 110.784 239.669 111.808C240.756 112.832 242.182 113.403 243.663 113.407H243.96C244.706 113.372 245.438 113.186 246.113 112.858C246.787 112.531 247.39 112.068 247.886 111.499C248.381 110.93 248.76 110.265 248.998 109.543C249.236 108.822 249.33 108.059 249.274 107.301C249.154 105.797 248.484 104.395 247.396 103.371C246.309 102.347 244.883 101.776 243.402 101.772Z" fill="white"/>
<path d="M253.99 107.06L250.359 107.25" stroke="black" stroke-width="4.52" stroke-miterlimit="10"/>
<path opacity="0.53" d="M265.594 110.126C267.413 107.504 266.75 103.841 264.113 101.944C261.476 100.047 257.865 100.635 256.046 103.257C254.227 105.879 254.89 109.542 257.526 111.439C260.163 113.336 263.775 112.748 265.594 110.126Z" fill="white"/>
<path opacity="0.53" d="M248.299 111.012C250.118 108.39 249.455 104.727 246.818 102.83C244.182 100.933 240.57 101.521 238.75 104.143C236.931 106.765 237.594 110.428 240.231 112.325C242.868 114.222 246.479 113.634 248.299 111.012Z" fill="white"/>
<path d="M257.32 128.373L265.383 147.88C265.383 147.88 280.94 152.142 284.721 137.152" stroke="black" stroke-width="4.52" stroke-miterlimit="10"/>
<path d="M104.321 229.477C110.411 227.522 113.599 220.287 111.441 213.318C109.283 206.349 102.597 202.285 96.5073 204.24C90.4172 206.196 87.2293 213.43 89.3872 220.399C91.5446 227.368 98.2307 231.433 104.321 229.477Z" fill="#D7E8F0"/>
<path d="M255.168 268.99C254.995 253.112 252.245 237.424 250.979 231.02" stroke="black" stroke-width="4.52" stroke-miterlimit="10"/>
</svg>
