<svg width="400" height="386" viewBox="0 0 400 386" fill="none" xmlns="http://www.w3.org/2000/svg">
<path d="M115.174 145.786H80.5484C79.5846 145.786 78.6302 145.614 77.7402 145.283C76.8497 144.95 76.0406 144.464 75.3599 143.851C74.6786 143.237 74.139 142.509 73.7707 141.708C73.4028 140.906 73.2139 140.047 73.2153 139.181V64.2968C73.2153 63.4307 73.4052 62.573 73.7735 61.7729C74.1423 60.9732 74.6824 60.2463 75.3637 59.6339C76.0444 59.0215 76.853 58.5361 77.7426 58.2052C78.6321 57.8743 79.5855 57.704 80.5484 57.7048H137.713C138.677 57.7019 139.633 57.8705 140.525 58.2001C141.417 58.5301 142.228 59.0152 142.912 59.6275C143.595 60.2399 144.137 60.9676 144.507 61.7686C144.878 62.5701 145.069 63.429 145.069 64.2968V84.4944" stroke="#CCDDE2" stroke-width="4.5" stroke-miterlimit="10"/>
<path d="M135.975 66.7786H83.0338C81.0076 66.7786 79.3649 68.2563 79.3649 70.0789V78.9704C79.3649 80.793 81.0076 82.2707 83.0338 82.2707H135.975C138.001 82.2707 139.644 80.793 139.644 78.9704V70.0789C139.644 68.2563 138.001 66.7786 135.975 66.7786Z" stroke="#CCDDE2" stroke-width="4.5" stroke-miterlimit="10"/>
<path d="M109.133 73.3029C110.116 73.3029 110.913 72.5858 110.913 71.7017C110.913 70.8173 110.116 70.1006 109.133 70.1006C108.15 70.1006 107.353 70.8173 107.353 71.7017C107.353 72.5858 108.15 73.3029 109.133 73.3029Z" fill="#D7E8F0"/>
<path d="M104.157 78.9534C104.116 78.3431 104.213 77.7316 104.444 77.1563C104.675 76.581 105.034 76.0543 105.5 75.6088C105.965 75.1634 106.528 74.8083 107.152 74.5655C107.775 74.3228 108.448 74.1976 109.128 74.1976C109.808 74.1976 110.481 74.3228 111.105 74.5655C111.728 74.8083 112.291 75.1634 112.757 75.6088C113.222 76.0543 113.581 76.581 113.812 77.1563C114.043 77.7316 114.141 78.3431 114.099 78.9534H104.157Z" fill="#D7E8F0"/>
<path d="M109.497 98.8746C107.599 98.8746 105.744 99.3809 104.166 100.329C102.588 101.278 101.358 102.626 100.632 104.203C99.9056 105.78 99.7153 107.516 100.086 109.191C100.456 110.865 101.37 112.403 102.712 113.61C104.054 114.817 105.764 115.639 107.625 115.972C109.486 116.305 111.416 116.134 113.17 115.481C114.923 114.828 116.422 113.721 117.476 112.302C118.53 110.882 119.093 109.214 119.093 107.506C119.094 106.373 118.846 105.25 118.364 104.203C117.882 103.155 117.175 102.203 116.284 101.402C115.393 100.6 114.335 99.9643 113.171 99.5308C112.006 99.0969 110.758 98.8742 109.497 98.8746ZM109.497 114.052C109.165 114.002 108.863 113.848 108.646 113.618C108.428 113.387 108.308 113.094 108.308 112.791C108.308 112.488 108.428 112.195 108.646 111.964C108.863 111.734 109.165 111.58 109.497 111.531C109.7 111.5 109.909 111.511 110.108 111.56C110.306 111.609 110.49 111.697 110.647 111.817C110.804 111.937 110.931 112.086 111.017 112.254C111.104 112.423 111.149 112.606 111.149 112.791C111.149 112.976 111.104 113.16 111.017 113.328C110.931 113.496 110.804 113.645 110.647 113.765C110.49 113.885 110.306 113.973 110.108 114.022C109.909 114.072 109.7 114.082 109.497 114.052ZM111.273 104.347C111.044 106.256 110.653 108.146 110.103 110.002C110.046 110.101 109.959 110.184 109.852 110.242C109.746 110.299 109.624 110.33 109.5 110.33C109.375 110.33 109.254 110.299 109.147 110.242C109.041 110.184 108.954 110.101 108.896 110.002C108.458 108.634 108.123 107.241 107.893 105.833C107.698 104.811 107.036 103.15 107.67 102.154C108.229 101.264 109.81 101.157 110.724 101.621C111.845 102.196 111.405 103.414 111.273 104.347Z" fill="#D7E8F0"/>
<path d="M85.3914 89.1867H132.264" stroke="#CCDDE2" stroke-width="4.5" stroke-miterlimit="10"/>
<path d="M85.3914 93.3387H132.264" stroke="#CCDDE2" stroke-width="4.5" stroke-miterlimit="10"/>
<path d="M85.3914 120.06H132.264" stroke="#CCDDE2" stroke-width="4.5" stroke-miterlimit="10"/>
<path d="M96.2798 123.988H121.375" stroke="#CCDDE2" stroke-width="4.5" stroke-miterlimit="10"/>
<path d="M374.961 129.783H303.112C297.13 129.783 292.281 134.145 292.281 139.526V249.908C292.281 255.289 297.13 259.651 303.112 259.651H374.961C380.943 259.651 385.793 255.289 385.793 249.908V139.526C385.793 134.145 380.943 129.783 374.961 129.783Z" fill="#3FBDF1"/>
<path d="M276.748 129.783H226.718C220.736 129.783 215.887 134.145 215.887 139.526V249.908C215.887 255.289 220.736 259.651 226.718 259.651H276.748C282.73 259.651 287.58 255.289 287.58 249.908V139.526C287.58 134.145 282.73 129.783 276.748 129.783Z" fill="#3FBDF1"/>
<path d="M220.029 325.69H385.277C388.132 325.689 390.87 324.669 392.889 322.853C394.909 321.037 396.045 318.575 396.047 316.007V131.495C396.048 130.222 395.77 128.962 395.229 127.787C394.687 126.611 393.894 125.543 392.894 124.643C391.894 123.743 390.706 123.03 389.399 122.543C388.092 122.056 386.692 121.806 385.277 121.807H272.975L243.624 121.964H243.538L228.697 122.484H228.65L224.744 122.62H224.398L224.11 124.711L223.542 128.599C223.548 128.606 223.551 128.615 223.551 128.625C223.551 128.634 223.548 128.642 223.542 128.65L218.921 134.808L217.974 136.056L215.366 151.071V151.143C215.309 151.122 215.252 151.092 215.181 151.058C215.124 151.028 215.07 150.994 215.02 150.956C214.142 150.361 213.483 149.544 213.127 148.609C212.26 146.633 212.052 144.014 212.042 141.936L211.474 153.345V153.387L210.684 168.628L210.49 172.72C210.859 172.128 211.389 171.277 212.005 170.259L210.04 181.552L209.633 189.69L208.62 210.254L208.582 211.02V211.314L208.317 216.322V216.437C208.317 216.437 207.559 231.133 207.559 231.154L207.488 232.517L206.612 238.466L204.056 255.112V316.007C204.057 317.742 204.576 319.445 205.561 320.936C206.546 322.428 207.959 323.654 209.652 324.485C212.857 326.048 216.403 325.839 219.925 325.733C220.872 325.707 221.818 325.669 222.765 325.622" fill="#3FBDF1"/>
<path d="M213.756 322.514C213.69 322.514 213.619 322.459 213.538 322.437C212.639 322.147 211.788 321.746 211.01 321.245C209.647 320.373 208.536 319.22 207.77 317.881C207.005 316.543 206.608 315.059 206.613 313.554V232.287L204.056 233.39L203.895 233.462L203.55 232.692L201.841 228.859L201.367 227.799L197.045 218.094C197.045 218.094 205.254 188.217 210.684 168.628C212.672 161.436 214.291 155.627 214.973 153.187C215.181 152.459 215.304 152.033 215.328 151.961C215.33 151.944 215.33 151.927 215.328 151.91C215.342 151.765 215.318 151.619 215.257 151.484C215.19 151.327 215.109 151.174 215.016 151.028C215.005 150.998 214.989 150.969 214.968 150.943C214.405 150.082 213.772 149.259 213.075 148.482L212.175 138.462L212.322 138.36L213.004 137.87L217.662 134.548L218.746 131.968L220.872 126.951L221.818 124.716H224.072H224.649H228.725L243.789 124.673H245.082L273.661 124.52H383.014C384.391 124.52 385.755 124.764 387.027 125.238C388.299 125.713 389.454 126.408 390.427 127.284C391.4 128.161 392.172 129.201 392.697 130.346C393.223 131.491 393.493 132.718 393.491 133.957V313.554C393.493 314.793 393.223 316.02 392.697 317.165C392.172 318.309 391.4 319.35 390.427 320.226C389.454 321.103 388.299 321.798 387.027 322.272C385.755 322.747 384.391 322.991 383.014 322.991H220.228" fill="#3FBDF1"/>
<path d="M224.697 122.058L228.569 122.037H228.65L243.515 121.964H243.619L272.97 121.807H385.277C388.133 121.808 390.872 122.829 392.891 124.646C394.911 126.462 396.046 128.926 396.047 131.495V316.007C396.045 318.575 394.909 321.037 392.889 322.853C390.87 324.669 388.132 325.689 385.277 325.69H214.533C211.75 325.69 209.082 324.696 207.115 322.926C205.147 321.157 204.042 318.756 204.042 316.254V296.107" stroke="black" stroke-width="4.5" stroke-miterlimit="10"/>
<path d="M374.961 269.189H226.718C220.736 269.189 215.887 273.551 215.887 278.932V306.02C215.887 311.401 220.736 315.763 226.718 315.763H374.961C380.943 315.763 385.793 311.401 385.793 306.02V278.932C385.793 273.551 380.943 269.189 374.961 269.189Z" fill="white"/>
<path d="M325.949 279.564H230.188C228.162 279.564 226.519 281.042 226.519 282.864V302.759C226.519 304.582 228.162 306.06 230.188 306.06H325.949C327.976 306.06 329.618 304.582 329.618 302.759V282.864C329.618 281.042 327.976 279.564 325.949 279.564Z" fill="#3FBDF1"/>
<path d="M308.769 290.724C310.453 290.724 311.818 289.497 311.818 287.982C311.818 286.467 310.453 285.239 308.769 285.239C307.086 285.239 305.721 286.467 305.721 287.982C305.721 289.497 307.086 290.724 308.769 290.724Z" fill="white"/>
<path d="M300.258 300.381C300.258 298.349 301.155 296.399 302.753 294.961C304.352 293.524 306.519 292.716 308.779 292.716C311.039 292.716 313.206 293.524 314.804 294.961C316.403 296.399 317.3 298.349 317.3 300.381H300.258Z" fill="white"/>
<path d="M355.627 279.567C352.659 279.565 349.755 280.354 347.285 281.836C344.816 283.318 342.89 285.426 341.752 287.892C340.614 290.359 340.315 293.074 340.893 295.693C341.471 298.313 342.9 300.72 344.998 302.609C347.097 304.498 349.771 305.784 352.683 306.305C355.595 306.827 358.613 306.56 361.356 305.538C364.099 304.516 366.443 302.785 368.092 300.564C369.742 298.343 370.621 295.733 370.62 293.062C370.621 291.29 370.234 289.536 369.48 287.899C368.728 286.262 367.623 284.774 366.231 283.521C364.839 282.268 363.186 281.274 361.367 280.596C359.547 279.917 357.597 279.568 355.627 279.567ZM355.627 303.299C355.331 303.312 355.034 303.27 354.756 303.176C354.478 303.083 354.224 302.939 354.009 302.755C353.794 302.57 353.623 302.348 353.506 302.103C353.389 301.857 353.329 301.593 353.329 301.326C353.329 301.058 353.389 300.794 353.506 300.548C353.623 300.302 353.794 300.081 354.009 299.896C354.224 299.712 354.478 299.568 354.756 299.475C355.034 299.381 355.331 299.339 355.627 299.352C356.192 299.375 356.724 299.593 357.114 299.961C357.504 300.329 357.722 300.817 357.722 301.326C357.722 301.834 357.504 302.322 357.114 302.69C356.724 303.057 356.192 303.275 355.627 303.299ZM358.387 288.118C357.914 291.048 357.531 294.122 356.56 296.959C356.342 297.644 354.908 297.644 354.666 296.959C353.979 294.821 353.453 292.644 353.095 290.443C352.792 288.846 351.755 286.249 352.749 284.699C353.625 283.306 356.096 283.14 357.516 283.847C359.287 284.75 358.577 286.662 358.387 288.118Z" fill="#3FBDF1"/>
<path d="M371.562 223.663C370.835 229.305 368.239 234.621 364.11 238.919C359.981 243.217 354.512 246.299 348.411 247.765C342.31 249.231 335.86 249.012 329.899 247.139C323.938 245.265 318.741 241.822 314.982 237.258C311.225 232.693 309.079 227.217 308.824 221.542C308.57 215.866 310.219 210.253 313.557 205.431C316.895 200.609 321.767 196.802 327.541 194.502C333.315 192.203 339.725 191.519 345.937 192.538C346.21 192.586 346.469 192.683 346.699 192.824C346.929 192.965 347.124 193.147 347.273 193.358C347.421 193.57 347.52 193.807 347.563 194.054C347.606 194.301 347.592 194.554 347.523 194.795L346.903 196.971L341.345 216.492C341.256 216.803 341.26 217.13 341.356 217.439C341.452 217.749 341.637 218.031 341.892 218.255C342.148 218.48 342.464 218.64 342.81 218.72C343.156 218.8 343.519 218.797 343.863 218.711L365.436 213.285L368.386 212.544C368.649 212.478 368.924 212.46 369.194 212.491C369.465 212.522 369.726 212.601 369.962 212.725C370.198 212.848 370.404 213.013 370.567 213.21C370.731 213.406 370.849 213.631 370.914 213.869C371.763 217.075 371.983 220.39 371.562 223.663Z" fill="white"/>
<path d="M372.306 203.546C372.408 203.784 372.453 204.039 372.439 204.294C372.424 204.548 372.351 204.798 372.223 205.025C372.095 205.253 371.915 205.454 371.695 205.615C371.476 205.776 371.221 205.894 370.947 205.961L368.916 206.472L351.348 210.888C351.004 210.974 350.641 210.977 350.295 210.897C349.948 210.817 349.632 210.657 349.377 210.432C349.122 210.207 348.937 209.926 348.841 209.617C348.745 209.307 348.741 208.981 348.829 208.669L353.369 192.777L353.805 191.252C353.873 191.01 353.997 190.783 354.167 190.585C354.337 190.388 354.551 190.224 354.795 190.104C355.039 189.984 355.307 189.911 355.584 189.888C355.861 189.866 356.14 189.896 356.404 189.975C359.978 191.084 363.247 192.87 365.989 195.211C368.732 197.552 370.886 200.394 372.306 203.546Z" fill="white"/>
<path d="M339.849 155.179C344.628 155.179 348.503 151.694 348.503 147.395C348.503 143.096 344.628 139.61 339.849 139.61C335.069 139.61 331.195 143.096 331.195 147.395C331.195 151.694 335.069 155.179 339.849 155.179Z" fill="#D7E8F0"/>
<path d="M371.771 164.599H308.774V166.157H371.771V164.599Z" fill="#D7E8F0"/>
<path d="M371.771 170.364H308.774V171.923H371.771V170.364Z" fill="#D7E8F0"/>
<path d="M371.771 175.621H308.774V177.179H371.771V175.621Z" fill="#D7E8F0"/>
<path d="M276.549 197.159H227.201V198.717H276.549V197.159Z" fill="#D7E8F0"/>
<path d="M276.549 203.448H227.201V205.007H276.549V203.448Z" fill="#D7E8F0"/>
<path d="M276.549 209.734H227.201V211.293H276.549V209.734Z" fill="#D7E8F0"/>
<path d="M276.549 216.024H227.201V217.582H276.549V216.024Z" fill="#D7E8F0"/>
<path d="M276.549 222.313H227.201V223.872H276.549V222.313Z" fill="#D7E8F0"/>
<path d="M220.431 152.872C220.431 152.872 235.429 174.117 252.519 180.795C269.609 187.472 274.949 190.423 281.487 188.034C288.025 185.645 300.575 182.298 309.418 158.651C318.261 135.004 322.475 122.557 322.787 116.829C323.099 111.102 305.517 115.807 305.517 115.807C305.517 115.807 296.049 140.911 275.304 152.114L245.759 124.043L220.431 152.872Z" fill="white"/>
<path d="M202.906 185.521L214.978 188.468C214.978 188.468 200.96 205.855 213.425 224.06C225.89 242.265 251.558 278.993 251.558 278.993L300.688 349.257L254.739 343.495L220.431 309.692L202.915 293.983L180.963 232.343L202.906 185.521Z" fill="white"/>
<path d="M5.79718 275.374C6.88261 275.902 8.13904 276.072 9.34926 275.855C10.5595 275.638 11.6475 275.047 12.4249 274.186L30.2913 254.482L44.7066 238.206L32.9045 232.245C31.6822 231.623 30.2354 231.464 28.8829 231.802C27.5299 232.14 26.3814 232.947 25.6898 234.046L3.69524 268.794C3.34487 269.349 3.12119 269.96 3.03735 270.594C2.9535 271.227 3.01117 271.869 3.20697 272.482C3.40277 273.095 3.73278 273.666 4.1776 274.163C4.62241 274.659 5.17303 275.071 5.79718 275.374Z" fill="#2E2E2E"/>
<path d="M277.752 368.313L292.621 381.472C293.905 382.61 295.634 383.249 297.436 383.252H334.622C335.776 383.256 336.906 382.958 337.874 382.394C338.843 381.831 339.608 381.025 340.076 380.077C340.544 379.129 340.696 378.078 340.512 377.054C340.327 376.03 339.816 375.076 339.039 374.309C338.062 373.325 336.711 372.706 335.252 372.572L314.626 370.668L277.752 368.313Z" fill="#2E2E2E"/>
<path d="M141.959 203.733C141.959 203.733 170.719 210.93 189.892 213.076C209.065 215.222 207.72 208.068 207.72 208.068L210.064 199.032C216.218 190.012 219.792 170.824 219.792 170.824L222.263 155.813L225.871 161.524L237.531 172.089L237.673 172.191C237.318 167.145 237.588 160.055 238.894 150.396C241.905 128.04 251.875 130.633 251.875 130.633L250.412 129.19C243.524 118.88 221.534 107.983 214.509 105.377C207.484 102.771 210.49 106.463 211.384 109.209C212.279 111.956 209.723 119.685 199.483 115.75C189.243 111.815 188.727 103.256 188.727 103.256H183.969C154.784 106.412 139.942 120.413 139.942 120.413C170.946 126.992 163.83 150.648 163.83 150.648L161.018 152.96C150.012 161.545 149.245 169.823 150.196 173.273C151.148 176.722 157.937 181.364 170.193 184.055C182.45 186.746 184.679 186.75 187.449 181.985C190.218 177.22 193.447 176.632 197.864 175.917C202.281 175.202 207.692 178.025 206.456 180.248C205.221 182.471 204.326 180.529 207.403 186.533C210.48 192.538 209.051 195.591 200.775 201.123C192.5 206.654 155.707 203.55 155.707 203.55C138.11 199.172 141.959 203.733 141.959 203.733Z" fill="#2E2E2E"/>
<path d="M209.226 103.398V104.305V104.535C217.452 106.384 225.199 109.656 232.035 114.167C233.142 114.896 234.222 115.636 235.287 116.416C235.315 113.286 235.017 110.143 233.895 107.179C232.986 104.636 231.274 102.386 228.967 100.702C226.936 99.2459 224.536 98.3133 222.121 97.4701C219.707 96.627 217.335 95.886 215.12 94.749C213.252 93.8305 211.622 92.5679 210.333 91.0442C209.882 90.4932 209.6 89.8446 209.517 89.1641C209.434 88.4837 209.552 87.7955 209.86 87.1691C209.642 87.1555 209.428 87.1171 209.221 87.0541L209.226 103.398Z" fill="#3FBDF1"/>
<path d="M209.226 103.398V104.305V104.535C217.452 106.384 225.199 109.656 232.035 114.167C233.142 114.896 234.222 115.636 235.287 116.416C235.315 113.286 235.017 110.143 233.895 107.179C232.986 104.636 231.274 102.386 228.967 100.702C226.936 99.2459 224.536 98.3133 222.121 97.4701C219.707 96.627 217.335 95.886 215.12 94.749C213.252 93.8305 211.622 92.5679 210.333 91.0442C209.882 90.4932 209.6 89.8446 209.517 89.1641C209.434 88.4837 209.552 87.7955 209.86 87.1691C209.642 87.1555 209.428 87.1171 209.221 87.0541L209.226 103.398Z" fill="#3FBDF1"/>
<path d="M95.5745 174.096C98.6653 176.086 102.101 177.601 105.743 178.58C107.31 179.015 108.901 179.373 110.511 179.653C104.153 166.176 108.91 148.444 128.973 129.536C132.409 126.294 136.066 123.247 139.923 120.415C146.158 115.854 151.697 112.456 158.23 109.722C161.155 108.508 164.159 107.454 167.225 106.567C172.662 104.939 178.274 103.829 183.969 103.258C185.262 103.117 186.54 103.015 187.832 102.951C187.517 100.954 187.58 98.9244 188.017 96.9468C189.21 91.5173 191.288 88.3959 195.066 84.1162C197.433 81.4207 201.13 74.982 196.202 72.7591C193.092 71.3666 192.808 68.5007 194.271 66.7973C195.506 65.3154 198.006 64.6383 201.088 66.3715C203.218 67.5979 205.746 67.6746 208.189 67.0741C210.086 66.0798 211.731 64.7397 213.018 63.1394C216.597 58.5275 216.725 51.5395 211.124 48.1541C208.071 46.3017 204.179 45.8546 200.529 46.2123C198.895 46.3737 197.284 46.6905 195.724 47.1576C195.717 47.1546 195.71 47.1534 195.703 47.1534C195.695 47.1534 195.688 47.1546 195.682 47.1576C189.054 50.3642 184.343 56.2919 182.071 62.9733C180.736 66.9208 179.231 70.83 177.469 74.6626C176.021 77.8053 175.012 81.6251 171.789 83.7713C170.441 84.6677 168.912 85.3188 167.286 85.6876C161.194 89.1624 152.743 87.1567 146.082 86.4158C140.757 85.7608 135.335 86.251 130.261 87.8466C124.58 90.4314 119.695 94.5578 115.732 99.9234C109.185 108.802 116.116 121.603 105.166 128.604C101.852 130.712 98.0646 131.989 94.443 133.624C89.2734 135.988 85.0979 139.348 83.5546 144.522C80.5058 154.959 85.9311 167.798 95.5745 174.096Z" fill="#3FBDF1"/>
<path d="M363.311 383.251H104.243" stroke="black" stroke-width="4.5" stroke-miterlimit="10"/>
<path d="M218.727 58.9351C219.393 60.176 219.962 61.4565 220.431 62.7677C221.113 64.8969 220.375 66.217 221.411 68.2482C221.766 68.9509 222.278 70.1389 222.831 71.3398C222.988 71.0588 223.13 70.8288 223.215 70.65C227.277 62.5122 221.937 58.5902 219.366 57.2488C219.202 57.8254 218.989 58.3892 218.727 58.9351Z" fill="#3FBDF1"/>
<path d="M218.727 58.9351C219.393 60.176 219.962 61.4565 220.431 62.7677C221.113 64.8969 220.375 66.217 221.411 68.2482C221.766 68.9509 222.278 70.1389 222.831 71.3398C222.988 71.0588 223.13 70.8288 223.215 70.65C227.277 62.5122 221.937 58.5902 219.366 57.2488C219.202 57.8254 218.989 58.3892 218.727 58.9351Z" fill="#3FBDF1"/>
<path d="M128.723 196.222C126.242 213.818 128.249 244.342 168.309 267.695C175.519 271.898 182.009 277.835 188.367 282.966C205.708 297.062 222.204 311.975 237.786 327.645C247.326 337.158 257.064 347.157 266.735 356.789C271.693 361.712 276.705 366.589 281.771 371.421C285.501 374.96 291.419 383.247 297.417 383.247H334.277C337.591 383.247 340.601 380.807 340.554 377.813C340.527 376.519 339.983 375.278 339.02 374.317C338.043 373.333 336.692 372.714 335.233 372.58L314.607 370.676L214.949 228.113C209.808 220.755 205.249 208.644 209.226 200.711C224.375 170.536 223.073 141.289 223.073 141.289" stroke="black" stroke-width="4.5" stroke-miterlimit="10"/>
<path d="M180.32 276.867C175.974 290.601 168.958 304.547 163.163 313.328C161.064 316.534 158.296 319.345 155.011 321.606C143.138 329.787 126.356 328.914 114.97 320.197L58.3457 276.842L30.2962 254.481L12.4298 274.185C11.5852 275.109 10.3856 275.715 9.06834 275.883C7.75113 276.051 6.41181 275.768 5.31483 275.091C4.21784 274.414 3.44292 273.391 3.14311 272.226C2.8433 271.06 3.04038 269.835 3.69539 268.794L25.6947 234.054C26.3864 232.954 27.5348 232.147 28.8878 231.81C30.2404 231.472 31.6871 231.631 32.9095 232.252L44.7115 238.214L112.333 272.281C113.458 272.847 114.716 273.165 116.005 273.209C117.293 273.252 118.574 273.02 119.743 272.531C120.912 272.042 121.935 271.31 122.728 270.396C123.522 269.482 124.062 268.412 124.306 267.273L132.316 229.493" stroke="black" stroke-width="4.5" stroke-miterlimit="10"/>
<path d="M209.226 84.5238V103.261V104.168V104.398C211.37 107.208 212.45 111.211 210.405 114.192C207.663 118.191 201.613 117.526 197.779 115.291C196.65 114.634 195.573 113.908 194.555 113.119C191.142 110.451 188.932 106.752 188.344 102.72C188.028 100.723 188.091 98.6932 188.528 96.7156C189.731 91.2904 191.804 88.1732 195.587 83.8808C197.954 81.198 201.646 74.7508 196.714 72.5279C190.933 69.9345 194.938 62.3461 201.599 66.1403C206.769 69.0914 214.197 65.4121 217.264 61.4561C220.843 56.8442 220.971 49.8562 215.371 46.4708C212.317 44.6184 208.426 44.1712 204.776 44.5289C193.655 45.6276 185.74 53.446 182.573 62.7464C181.238 66.6939 179.732 70.6031 177.971 74.4357C176.523 77.5784 175.514 81.3981 172.29 83.5444C166.136 87.6708 157.264 85.5117 150.319 84.7452C135.862 83.1483 124.201 88.9099 116.234 99.6965C109.687 108.575 116.617 121.376 105.668 128.377C102.354 130.485 98.5664 131.762 94.9448 133.397C89.7752 135.761 85.5997 139.121 84.0801 144.295C81.0124 154.719 86.4471 167.558 96.081 173.856C100.498 176.744 105.668 178.468 111.036 179.414" stroke="black" stroke-width="4.5" stroke-miterlimit="10"/>
<path d="M237.767 118.843C237.796 118.604 237.805 118.374 237.82 118.149C238.061 114.031 238.033 109.764 236.541 105.799C235.626 103.259 233.913 101.01 231.608 99.3264C229.573 97.8743 227.173 96.9332 224.768 96.09C222.363 95.2469 219.977 94.5144 217.766 93.3732C215.895 92.4585 214.262 91.1937 212.98 89.6641C212.531 89.1148 212.25 88.4683 212.167 87.79C212.084 87.112 212.201 86.426 212.506 85.8017" stroke="black" stroke-width="4.5" stroke-miterlimit="10"/>
<path d="M204.743 80.2995C206.418 82.4542 208.691 84.7793 211.555 85.6182C215.262 86.7041 217.757 83.8723 219.087 81.1171C219.882 79.4776 220.431 77.7317 221.075 76.0368C221.283 75.479 221.411 75.2107 222.121 75.1851C222.832 75.1596 223.58 75.2873 224.309 75.2873C224.361 75.2861 224.411 75.2724 224.455 75.2482C224.499 75.2239 224.536 75.1894 224.56 75.1481C224.585 75.1068 224.597 75.0608 224.595 75.014C224.593 74.9675 224.577 74.922 224.55 74.8828C223.57 73.5414 222.107 69.8834 221.369 68.4185C220.341 66.3873 221.085 65.0715 220.393 62.938C219.923 61.6281 219.357 60.3476 218.699 59.1054" stroke="black" stroke-width="4.5" stroke-miterlimit="10"/>
<path d="M219.792 55.1664C219.792 55.1664 229.899 58.654 224.678 69.1339C224.356 69.7684 223.565 71.0928 223.191 71.689" stroke="black" stroke-width="4.5" stroke-miterlimit="10"/>
<path d="M328.813 25.2861C328.813 25.2861 328.87 25.3113 328.983 25.3491L328.813 25.2861Z" fill="#3FBDF1"/>
<path d="M219.234 80.8147C218.425 80.9148 217.603 80.7458 216.922 80.3399C216.241 79.9337 215.749 79.3183 215.536 78.6089" stroke="black" stroke-width="4.5" stroke-miterlimit="10"/>
<path d="M220.943 66.7799C218.85 65.2469 216.554 67.2057 215.153 68.628" stroke="black" stroke-width="4.5" stroke-miterlimit="10"/>
<path d="M188.358 102.724C181.34 103.124 174.409 104.336 167.736 106.331C156.848 109.541 149.349 113.685 140.454 120.179C136.597 123.017 132.94 126.067 129.504 129.313C109.422 148.22 104.673 165.961 111.041 179.434C116.215 190.413 128.145 197.222 140.368 200.692C148.364 202.958 156.696 203.933 165.057 204.15C175.022 204.406 185.072 204.065 194.881 202.362C199.014 201.646 203.777 201.059 206.243 197.605C208.71 194.152 208.918 189.493 207.086 185.792C205.367 182.347 200.728 178.642 196.534 181.347C196.069 181.648 195.686 182.041 195.415 182.496C195.143 182.951 194.99 183.454 194.967 183.97" stroke="black" stroke-width="4.5" stroke-miterlimit="10"/>
<path d="M180.779 125.506C181.299 139.627 167.997 147.501 167.997 147.501C163.584 150.716 159.295 154.169 155.688 158.126C153.382 160.651 151.243 163.478 150.182 166.642C149.389 168.8 149.403 171.131 150.22 173.281C151.124 175.269 152.617 176.996 154.538 178.272C158.126 180.797 162.491 182.105 166.818 183.237C171.585 184.465 176.442 185.395 181.351 186.022C184.192 186.388 185.39 185.596 186.687 183.386C187.861 181.385 188.822 179.068 190.995 177.761C194.006 175.943 198.049 175.521 201.533 176.271C206.906 177.42 208.279 181.253 203.9 182.028" stroke="black" stroke-width="4.5" stroke-miterlimit="10"/>
<path d="M177.498 221.308L95.8585 203.563L76.4298 275.888L155.806 293.637L158.353 292.585L177.498 221.308Z" fill="white"/>
<path d="M139.829 211.14C143.701 186.756 152.095 180.726 157.558 179.521L157.198 179.342C140.705 173.568 129.267 202.137 126.838 208.819L139.829 211.14Z" fill="#D7E8F0"/>
<path d="M139.601 213.072C143.474 188.688 152.095 180.708 157.558 179.52L157.198 179.341C140.704 173.567 128.794 203.512 126.355 210.189L139.601 213.072Z" fill="#D7E8F0"/>
<path d="M157.198 179.341C138.546 172.817 126.355 210.189 126.355 210.189L139.611 213.072C147.313 175.598 163.84 182.412 163.84 182.412C163.258 182.254 157.198 179.341 157.198 179.341Z" stroke="black" stroke-width="4.5" stroke-miterlimit="10"/>
<path d="M94.9491 207.01L76.4326 275.911L140.84 289.916L159.357 221.016L94.9491 207.01Z" fill="#3FBDF1"/>
<path d="M95.9319 203.363L76.4341 275.914L144.251 290.661L163.749 218.11L95.9319 203.363Z" fill="white"/>
<path d="M96.2514 208.881L79.4587 271.366C78.9829 273.137 80.1934 274.921 82.1628 275.349L139.439 287.803C141.408 288.232 143.391 287.143 143.867 285.371L160.659 222.886C161.135 221.114 159.924 219.331 157.955 218.903L100.68 206.448C98.7103 206.02 96.7277 207.109 96.2514 208.881Z" fill="#3FBDF1"/>
<path d="M95.8717 203.589L76.4349 275.913L144.253 290.66L163.689 218.336L95.8717 203.589Z" stroke="black" stroke-width="4.5" stroke-miterlimit="10"/>
<path d="M163.974 218.393L144.537 290.717L158.075 293.661L177.512 221.337L163.974 218.393Z" fill="white"/>
<path d="M163.974 218.393L144.537 290.717L158.075 293.661L177.512 221.337L163.974 218.393Z" stroke="black" stroke-width="4.5" stroke-miterlimit="10"/>
<path d="M158.069 293.637L153.709 283.549L144.53 290.695" stroke="black" stroke-width="4.5" stroke-miterlimit="10"/>
<path d="M170.733 219.84L153.709 283.55" stroke="black" stroke-width="4.5" stroke-miterlimit="10"/>
<path d="M320.074 102.516C319.819 102.554 319.601 102.593 319.322 102.644C316.761 103.046 314.333 103.963 312.221 105.326C309.906 106.936 307.804 109.734 306.781 112.14C305.234 115.794 303.535 119.388 301.682 122.922C298.886 128.371 295.558 133.586 291.741 138.508C287.778 143.516 283.021 148.592 277.027 151.709C276.275 152.118 275.483 152.464 274.66 152.744C273.652 153.127 259.464 138.444 257.902 136.809C251.638 130.255 245.162 123.765 237.82 118.157C235.959 116.726 234.032 115.346 232.053 114.056C225.213 109.541 217.461 106.265 209.23 104.411" stroke="black" stroke-width="4.5" stroke-miterlimit="10"/>
<path d="M345.601 101.979C345.629 101.985 345.658 101.985 345.686 101.979C352.247 102.668 349.677 109.03 345.061 108.826C339.962 108.596 334.878 108.826 329.794 108.903C328.392 108.861 326.997 109.092 325.703 109.58C323.147 110.678 322.905 113.131 322.522 115.354C322.011 118.267 321.428 121.18 320.742 124.067C319.407 129.79 317.759 135.437 315.871 141.032C314.649 144.66 313.3 148.272 311.88 151.844C307.733 162.371 302.506 173.537 293.715 181.653C288.858 186.15 282.495 189.472 275.323 188.986C265.225 188.309 255.511 183.748 246.947 178.562C246.911 178.539 246.877 178.514 246.848 178.485C243.651 176.549 240.587 174.442 237.673 172.174C237.673 172.174 225.871 162.72 222.263 155.796" stroke="black" stroke-width="4.5" stroke-miterlimit="10"/>
<path d="M364.258 96.2569V96.8531C364.258 100.967 360.575 101.674 357.393 101.742L295.817 103.019C293.118 103.083 290.851 100.958 290.794 98.3052V98.1945C290.794 95.5926 292.915 93.4294 295.58 93.3698C295.58 93.3698 330.025 92.4968 356.702 91.8367C357.209 93.2888 358.449 94.4131 359.988 95.2903C361.273 95.9857 362.759 96.3221 364.258 96.2569Z" stroke="black" stroke-width="4.5" stroke-miterlimit="10"/>
<path d="M396.97 37.6474C396.97 38.3253 396.791 38.9934 396.45 39.5977L368.93 90.3791C368.607 90.9659 368.146 91.4829 367.58 91.8942C367.014 92.306 366.355 92.6024 365.65 92.7638C364.512 93.0227 363.31 92.9107 362.255 92.4487C361.412 92.0756 360.702 91.4978 360.206 90.7806C359.71 90.0631 359.447 89.2353 359.448 88.3904C359.452 87.7146 359.624 87.0486 359.95 86.4401L387.483 35.6544C387.984 34.7474 388.81 34.0192 389.828 33.5874C390.846 33.156 391.997 33.0466 393.093 33.2765C394.189 33.5069 395.166 34.0635 395.866 34.856C396.567 35.6485 396.949 36.6304 396.951 37.6431L396.97 37.6474Z" stroke="black" stroke-width="4.5" stroke-miterlimit="10"/>
<path d="M322.086 27.2027C330.437 27.2027 337.207 21.1131 337.207 13.6013C337.207 6.08948 330.437 -3.05176e-05 322.086 -3.05176e-05C313.735 -3.05176e-05 306.966 6.08948 306.966 13.6013C306.966 21.1131 313.735 27.2027 322.086 27.2027Z" fill="#3FBDF1"/>
<path d="M317.281 18.281C316.78 18.1122 316.311 17.8752 315.889 17.5784C315.148 17.075 314.637 16.3439 314.455 15.5242C314.274 14.7044 314.434 13.8532 314.905 13.1326C315.211 12.6646 315.635 12.2672 316.142 11.9716C316.649 11.676 317.225 11.4903 317.826 11.4292C317.493 10.726 317.424 9.94455 317.629 9.20291C317.834 8.46126 318.301 7.79985 318.961 7.31869C319.622 6.83754 320.438 6.56287 321.287 6.53617C322.136 6.50951 322.972 6.73227 323.668 7.17084C325.13 8.0864 326.143 9.70033 326.764 11.1737C327.084 11.9474 327.318 12.7476 327.464 13.5627C327.535 13.9885 328.018 16.3307 327.639 16.5691C325.14 18.1277 320.486 19.3797 317.281 18.281Z" fill="white"/>
<g opacity="0.72">
<path opacity="0.72" d="M309.328 55.5752C313.924 55.5752 317.651 52.2239 317.651 48.089C317.651 43.9545 313.924 40.6027 309.328 40.6027C304.732 40.6027 301.005 43.9545 301.005 48.089C301.005 52.2239 304.732 55.5752 309.328 55.5752Z" fill="#3FBDF1"/>
<path opacity="0.72" d="M310.976 51.2657C310.775 51.4616 310.542 51.6281 310.284 51.7597C309.843 51.9914 309.323 52.0706 308.822 51.982C308.321 51.8934 307.873 51.6435 307.562 51.2785C307.359 51.0396 307.22 50.7615 307.157 50.4656C307.093 50.17 307.107 49.8651 307.198 49.5751C306.732 49.5777 306.277 49.4444 305.903 49.1953C305.528 48.9458 305.254 48.594 305.12 48.1925C304.987 47.7905 305.002 47.3608 305.163 46.9677C305.324 46.5743 305.623 46.2387 306.014 46.0109C306.902 45.5689 307.914 45.3679 308.926 45.4317C309.432 45.4445 309.935 45.5045 310.426 45.6106C310.677 45.6617 312.107 45.9342 312.164 46.1557C312.528 47.6333 312.268 50.0308 310.976 51.2657Z" fill="white"/>
</g>
<path d="M356.181 31.7508L348.014 35.6672C345.051 37.0874 343.93 40.3996 345.509 43.0641L349.863 50.4106C351.442 53.0755 355.123 54.0844 358.086 52.6638L366.253 48.7477C369.216 47.3271 370.337 44.0154 368.758 41.3505L364.404 34.0039C362.825 31.3394 359.143 30.3306 356.181 31.7508Z" fill="#3FBDF1"/>
<path d="M359.453 50.5763L365.366 47.7402C366.598 47.1449 367.52 46.1352 367.927 44.9314C368.335 43.7271 368.197 42.427 367.543 41.3143L363.756 34.9267C363.095 33.8169 361.973 32.9878 360.634 32.6208C359.295 32.2537 357.849 32.3785 356.612 32.9678L356.215 33.1594C354.737 35.0033 352.773 38.1588 355.741 39.151C360.002 40.5861 358.757 42.7366 357.161 45.4918C355.807 47.8041 355.462 50.5081 359.453 50.5763Z" fill="white"/>
<path d="M350.245 42.843C351.479 42.843 352.479 41.9428 352.479 40.8331C352.479 39.7229 351.479 38.8231 350.245 38.8231C349.011 38.8231 348.01 39.7229 348.01 40.8331C348.01 41.9428 349.011 42.843 350.245 42.843Z" fill="white"/>
<path d="M322.721 76.3903C323.549 76.7522 324.43 77.0048 325.339 77.1397C327.006 77.3697 328.712 77.2066 330.288 76.6662C331.865 76.1258 333.259 75.2269 334.333 74.0567C335.162 73.1283 335.782 71.9658 336.653 71.029C337.249 70.3455 338.046 69.8264 338.954 69.53C339.265 69.4704 339.556 69.3431 339.801 69.1595C340.398 68.6059 339.385 68.1375 339.181 67.6904C338.876 66.969 338.876 66.1718 339.181 65.4504C339.959 63.5542 339.98 61.474 339.243 59.5645C338.506 57.655 337.055 56.0347 335.139 54.9799C333.222 53.9247 330.958 53.5005 328.732 53.779C326.507 54.058 324.457 55.0225 322.934 56.5078C321.428 57.9684 320.524 59.8336 319.587 61.6179C318.754 63.2063 317.868 64.7861 317.409 66.4938C316.344 70.5392 318.749 74.6486 322.721 76.3903Z" fill="#3FBDF1"/>
<path d="M331.176 62.0186C332.339 62.0186 333.282 61.1703 333.282 60.1236C333.282 59.0769 332.339 58.2286 331.176 58.2286C330.012 58.2286 329.069 59.0769 329.069 60.1236C329.069 61.1703 330.012 62.0186 331.176 62.0186Z" fill="white"/>
<path d="M328.416 67.2483C329.58 67.2483 330.523 66.4 330.523 65.3533C330.523 64.307 329.58 63.4583 328.416 63.4583C327.252 63.4583 326.309 64.307 326.309 65.3533C326.309 66.4 327.252 67.2483 328.416 67.2483Z" fill="white"/>
<path d="M325.826 72.154C326.99 72.154 327.933 71.3053 327.933 70.259C327.933 69.2123 326.99 68.364 325.826 68.364C324.663 68.364 323.72 69.2123 323.72 70.259C323.72 71.3053 324.663 72.154 325.826 72.154Z" fill="white"/>
<g opacity="0.54">
<path opacity="0.54" d="M275.257 84.1107C275.897 84.0345 276.53 83.9166 277.15 83.7573L284.28 81.9517C286.462 81.3981 288.758 80.7849 290.306 79.2902C293.175 76.518 292.247 72.1148 291.135 68.4611C290.229 65.4717 289.322 62.4823 288.413 59.4929C287.788 57.4319 287.144 55.3367 285.899 53.5312C284.654 51.7256 282.685 50.1756 280.336 49.8434C278.609 49.6007 276.857 50.018 275.167 50.4311L268.326 52.1344C266.082 52.6838 263.715 53.3012 262.143 54.847C259.35 57.5937 260.25 61.9032 261.32 65.493L264.051 74.6699C265.727 80.1845 268.866 84.8347 275.257 84.1107Z" fill="#3FBDF1"/>
<path opacity="0.54" d="M274.783 71.5958C275.206 71.9667 275.729 72.2307 276.301 72.3618C276.873 72.493 277.473 72.4862 278.041 72.3427C278.609 72.1987 279.125 71.9232 279.537 71.543C279.949 71.1631 280.243 70.6921 280.389 70.1777L281.184 67.3757L281.974 64.5694C282.12 64.055 282.112 63.515 281.951 63.0044C281.791 62.4934 281.484 62.0297 281.062 61.6596C280.639 61.2892 280.115 61.0256 279.543 60.8948C278.972 60.7645 278.371 60.7713 277.804 60.9157L274.712 61.6992L271.616 62.4828C271.049 62.628 270.535 62.9052 270.125 63.2859C269.714 63.6666 269.422 64.138 269.279 64.6524C269.135 65.1664 269.144 65.706 269.305 66.2161C269.466 66.7263 269.773 67.1892 270.196 67.5588L272.502 69.5773L274.783 71.5958Z" fill="white"/>
</g>
</svg>
