<svg width="376" height="402" viewBox="0 0 376 402" fill="none" xmlns="http://www.w3.org/2000/svg">
<path d="M86.48 170.52C86.48 170.52 66.2399 106.489 136.838 114.304C207.435 122.119 173.704 93.7782 200.382 76.1907C227.059 58.6032 305.662 113.319 272.777 166.094C239.892 218.869 325.33 170.592 343.153 249.955C354.151 298.931 326.864 334.978 304.353 355.412" stroke="#CCDDE2" stroke-width="5.47" stroke-miterlimit="10"/>
<path d="M311.238 294.225C305.932 261.377 287.147 231.983 256.628 221.463C248.82 218.786 240.837 216.737 232.744 215.332V215.376C232.322 218.103 231.323 220.691 229.822 222.942C226.641 227.601 222.257 231.428 217.181 233.422C212 235.472 205.582 235.738 200.773 232.514C197.877 230.576 195.069 227.163 194.561 223.481C193.982 219.332 195.96 215.404 198.742 212.663C175.16 212.868 152.976 217.016 135.198 221.74C135.815 224.498 136.668 227.189 137.748 229.78C139.259 233.391 141.394 236.665 144.042 239.428C147.344 235.93 150.236 232.016 152.652 227.77C154.964 228.579 157.003 230.097 158.514 232.134C160.025 234.172 160.943 236.64 161.154 239.231V239.364C162.086 248.774 153.611 255.846 146.49 260.195C138.263 265.252 129.092 269.039 120.083 272.187C116.368 273.489 111.54 274.599 107.619 273.24C107.196 273.096 106.784 272.92 106.385 272.714C102.475 270.663 99.858 266.366 97.8164 262.438C91.9996 251.283 88.2171 239.122 85.6528 226.64C67.8567 229.072 65.8188 216.188 64.7622 213.029L49.538 258.531C48.7394 261.802 48.6532 265.225 49.2853 268.537C49.9177 271.849 51.2522 274.962 53.1859 277.636C55.1193 280.311 57.6009 282.476 60.4393 283.965C63.2781 285.454 66.3982 286.227 69.56 286.225H132.585L161.214 364.735L169.328 387.018H215.674C211.914 387.018 209.857 386.037 208.364 384.437C206.823 382.788 205.955 380.554 205.95 378.223C205.95 373.399 209.654 369.443 215.674 369.443H216.098C215.643 369.443 215.207 369.399 214.752 369.354C215.034 369.322 215.314 369.272 215.591 369.206C215.293 369.198 214.995 369.174 214.7 369.133C217.415 368.79 219.931 367.438 221.808 365.313C223.685 363.188 224.804 360.425 224.968 357.507C224.976 357.356 224.976 357.204 224.968 357.053V356.82C224.904 353.829 223.834 350.962 221.956 348.744C220.077 346.526 217.515 345.105 214.737 344.74C215.053 344.712 215.354 344.684 215.659 344.684C215.384 344.611 215.079 344.567 214.794 344.523C215.245 344.479 215.7 344.446 216.136 344.446L250.044 344.639L256.282 344.668H263.685C264.027 344.668 264.373 344.668 264.7 344.712L275.698 344.772L283.045 344.816C286.116 344.844 289.051 346.17 291.209 348.506C293.368 350.841 294.573 353.995 294.562 357.278C294.558 359.135 294.156 360.965 293.385 362.629C296.538 362.198 299.461 360.639 301.68 358.207C306.97 352.43 309.249 343.783 310.824 336.097C313.61 322.405 313.445 307.977 311.238 294.225ZM225.57 295.149C219.182 305.662 208.304 304.717 208.304 304.717C208.304 304.717 207.402 305.658 205.296 301.654C203.19 297.65 197.193 294.912 197.193 294.912C196.716 298.932 195.727 305.042 185.913 297.123C176.1 289.204 179.059 277.658 179.897 271.56C180.736 265.462 184.078 263.439 184.078 263.439L188.026 261.212C188.026 261.212 176.607 258.073 176.058 257.956C175.509 257.84 165.338 248.734 175.66 246.33C185.981 243.926 202.07 253.486 205.179 255.375C208.289 257.265 226.461 273.698 226.461 273.698C226.461 273.698 231.992 284.653 225.57 295.149Z" fill="#353642"/>
<path d="M85.6378 226.648C85.6378 226.648 94.2444 225.53 97.4667 218.961L94.658 235.809C94.658 235.809 128.897 223.347 135.176 221.739C135.176 221.739 137.199 235.685 145.253 239.427L153.562 228.131C153.562 228.131 163.981 230.945 161.131 246.125C158.281 261.304 118.861 273.991 112.176 273.698C105.491 273.404 98.2939 269.006 90.9243 245.373L85.6378 226.648Z" fill="#353642"/>
<path d="M99.6588 189.117C101.84 192.912 104.032 196.699 106.295 200.438C107.69 202.741 110.232 206.025 107.528 208.433C106.649 209.155 105.586 209.575 104.479 209.639C102.742 209.804 100.918 209.358 99.8618 207.762L94.5978 198.436C93.5488 196.576 91.8827 195.206 89.932 194.6C87.981 193.994 85.8882 194.195 84.0698 195.163" stroke="black" stroke-width="5.47" stroke-miterlimit="10"/>
<path d="M119.568 201.401C120.944 204.899 120.012 207.154 118.402 208.288C115.77 210.133 112.247 209.248 110.382 206.555L99.6776 189.136" stroke="black" stroke-width="5.47" stroke-miterlimit="10"/>
<path d="M108.72 184.052C112.616 189.117 117.53 198.524 120.249 202.452C122.967 206.379 127.171 204.011 127.171 204.011C130.585 202.046 130.006 198.785 128.513 194.826C124.836 185.105 119.587 178.641 113.732 174.404C95.5905 161.283 76.9785 170.963 71.44 193.612L49.538 258.531C48.7394 261.802 48.6532 265.225 49.2853 268.537C49.9177 271.849 51.2522 274.962 53.1859 277.637C55.1193 280.311 57.6009 282.476 60.4393 283.965C63.2781 285.453 66.3982 286.226 69.56 286.224H132.585L169.339 387.022" stroke="black" stroke-width="5.47" stroke-miterlimit="10"/>
<path d="M131.224 190.367C135.736 188.695 135.529 181 129.126 178.404C122.053 175.533 109.495 171.473 106.34 170.46C106.321 170.444 106.297 170.434 106.273 170.432C106.051 170.36 105.897 170.299 105.776 170.271L105.6 170.211" stroke="black" stroke-width="5.47" stroke-miterlimit="10"/>
<path d="M197.889 267.297C193.941 262.224 183.135 259.35 176.081 257.959C174.895 257.721 173.814 257.077 173 256.125C172.187 255.174 171.684 253.965 171.569 252.681C171.487 251.815 171.58 250.94 171.843 250.116C172.264 248.851 173.069 247.774 174.131 247.056C175.192 246.339 176.449 246.024 177.698 246.16C189.73 247.463 202.138 251.511 211.316 260.23C211.316 260.23 255.808 296.531 261.121 300.064C263.313 301.488 265.358 299.807 263.873 297.572L263.407 296.72C260.792 291.922 257.697 287.441 254.176 283.357" stroke="black" stroke-width="5.47" stroke-miterlimit="10"/>
<path d="M198.712 212.658C142.756 213.157 94.658 235.805 94.658 235.805L99.4595 207.03" stroke="black" stroke-width="5.47" stroke-miterlimit="10"/>
<path d="M285.621 369.265C285.621 369.265 279.526 367.789 277.905 373.007C276.285 378.225 274.593 386.527 286.245 387.017C297.897 387.508 291.054 385.059 290.381 381.027C289.708 376.995 285.621 369.265 285.621 369.265Z" fill="#353642"/>
<path d="M192.512 273.919C192.512 273.919 185.936 268.589 180.014 273.992C179.764 274.226 179.547 274.497 179.367 274.796" stroke="black" stroke-width="5.47" stroke-miterlimit="10"/>
<g opacity="0.77">
<path opacity="0.77" d="M110.36 206.536C112.24 209.233 115.759 210.114 118.38 208.265C119.97 207.139 120.903 204.896 119.56 201.431C119.805 201.812 120.027 202.15 120.245 202.46C122.959 206.403 127.167 204.027 127.167 204.027C130.581 202.062 130.006 198.801 128.513 194.838C127.052 190.912 125.136 187.198 122.809 183.783C124.332 182.259 126.14 180.72 128.047 181.395C130.103 182.127 130.679 184.884 130.912 187.184C131.021 188.253 131.13 189.31 131.239 190.38L132.886 206.122C133.435 211.348 133.984 216.65 135.176 221.752C135.792 224.51 136.645 227.201 137.725 229.792C139.236 233.403 141.371 236.676 144.019 239.44C147.322 235.942 150.213 232.027 152.63 227.782C154.941 228.59 156.98 230.108 158.491 232.146C160.003 234.184 160.921 236.651 161.131 239.243V239.375C162.063 248.786 153.588 255.857 146.467 260.207C138.24 265.264 129.069 269.051 120.061 272.199C116.346 273.501 111.518 274.611 107.596 273.252C107.174 273.108 106.762 272.932 106.363 272.725C102.452 270.675 99.8355 266.378 97.7938 262.45C88.0178 243.657 83.957 222.077 81.8176 200.707C86.0964 200.076 90.3603 199.372 94.5715 198.403C94.5715 198.403 94.5715 198.436 94.5978 198.448L99.452 207.055L99.8505 207.77C100.903 209.378 102.727 209.808 104.468 209.647C105.575 209.589 106.638 209.168 107.513 208.441C110.213 206.029 107.679 202.757 106.28 200.454" fill="white"/>
<path opacity="0.77" d="M110.36 206.536C112.24 209.233 115.759 210.114 118.38 208.265C119.97 207.139 120.903 204.896 119.56 201.431C119.805 201.812 120.027 202.15 120.245 202.46C122.959 206.403 127.167 204.027 127.167 204.027C130.581 202.062 130.006 198.801 128.513 194.838C127.052 190.912 125.136 187.198 122.809 183.783C124.332 182.259 126.14 180.72 128.047 181.395C130.103 182.127 130.679 184.884 130.912 187.184C131.021 188.253 131.13 189.31 131.239 190.38L132.886 206.122C133.435 211.348 133.984 216.65 135.176 221.752C135.792 224.51 136.645 227.201 137.725 229.792C139.236 233.403 141.371 236.676 144.019 239.44C147.322 235.942 150.213 232.027 152.63 227.782C154.941 228.59 156.98 230.108 158.491 232.146C160.003 234.184 160.921 236.651 161.131 239.243V239.375C162.063 248.786 153.588 255.857 146.467 260.207C138.24 265.264 129.069 269.051 120.061 272.199C116.346 273.501 111.518 274.611 107.596 273.252C107.174 273.108 106.762 272.932 106.363 272.725C102.452 270.675 99.8355 266.378 97.7938 262.45C88.0178 243.657 83.957 222.077 81.8176 200.707C86.0964 200.076 90.3603 199.372 94.5715 198.403C94.5715 198.403 94.5715 198.436 94.5978 198.448L99.452 207.055L99.8505 207.77C100.903 209.378 102.727 209.808 104.468 209.647C105.575 209.589 106.638 209.168 107.513 208.441C110.213 206.029 107.679 202.757 106.28 200.454" fill="#3FBDF1"/>
<path opacity="0.77" d="M111.514 207.81C113.18 210.222 116.026 209.917 118.38 208.265C119.801 207.26 120.967 207.553 119.767 204.454C119.989 204.791 120.019 203.65 120.215 203.903C122.64 207.424 120.245 202.448 120.245 202.448C123.629 207.018 130.995 202.713 129.645 199.179C128.216 195.372 126.712 189.744 124.806 186.93C126.31 185.411 126.02 185.636 127.934 186.846C128.448 187.199 128.878 187.675 129.191 188.237C129.504 188.799 129.69 189.43 129.735 190.082C129.889 191.614 130.043 193.081 130.197 194.576L131.664 208.646C132.156 213.322 132.645 218.045 133.709 222.596C134.259 225.057 135.022 227.457 135.988 229.768C137.334 232.947 141.658 238.242 144.019 240.666C146.956 237.55 150.475 231.822 152.63 228.015C156.766 229.374 156.585 233.603 156.878 238.222V238.342C157.713 246.74 150.148 253.047 143.809 256.935C136.462 261.449 128.276 264.826 120.233 267.64C116.917 268.806 112.608 269.811 109.108 268.581C108.73 268.453 108.362 268.296 108.006 268.11C104.517 266.277 102.178 262.446 100.354 258.937C92.3719 243.608 88.6683 226.206 86.6303 208.759C86.4807 207.453 86.8112 206.137 87.5519 205.087C88.2926 204.037 89.3857 203.336 90.6009 203.131C92.8907 202.729 95.1731 202.327 97.4403 201.788L97.5043 201.821L101.836 209.503C102.78 210.93 102.934 209.812 104.487 209.668C105.468 209.575 107.37 209.37 108.13 208.691C110.54 206.544 109.179 205.656 107.931 203.601" fill="#3FBDF1"/>
</g>
<path d="M191.719 281.678C191.719 281.678 179.232 277.288 179.044 284.669" stroke="black" stroke-width="5.47" stroke-miterlimit="10"/>
<path opacity="0.54" d="M79.9451 356.863L55.4562 289.785C55.1528 288.487 55.1303 287.132 55.3897 285.823C55.6495 284.515 56.1849 283.286 56.955 282.232C57.7254 281.177 58.7101 280.324 59.8351 279.738C60.9598 279.151 62.1949 278.846 63.4462 278.846H160.717C162.902 278.846 165.022 279.632 166.738 281.078C168.453 282.523 169.664 284.544 170.174 286.814L196.983 353.876C197.273 355.169 197.284 356.517 197.017 357.816C196.75 359.115 196.211 360.333 195.441 361.377C194.67 362.422 193.689 363.266 192.569 363.847C191.45 364.427 190.222 364.729 188.978 364.73H89.379C87.211 364.731 85.105 363.958 83.3957 362.532C81.6864 361.107 80.4719 359.111 79.9451 356.863Z" fill="white"/>
<path d="M195.783 292.993C195.783 292.993 197.81 294.979 197.039 297.817C196.467 299.919 194.512 301.246 192.576 300.526C186.409 298.247 180.856 294.376 179.502 287.795C178.863 284.463 178.724 281.043 179.093 277.665C179.39 274.533 179.822 271.152 180.807 268.173C182.311 263.599 186.917 260.411 191.388 262.614" stroke="black" stroke-width="5.47" stroke-miterlimit="10"/>
<path d="M79.9451 356.863L55.4562 289.785C55.1528 288.487 55.1303 287.132 55.3897 285.823C55.6495 284.515 56.1849 283.286 56.955 282.232C57.7254 281.177 58.7101 280.324 59.8351 279.738C60.9598 279.151 62.1949 278.846 63.4462 278.846H160.717C162.902 278.846 165.022 279.632 166.738 281.078C168.453 282.523 169.664 284.544 170.174 286.814L196.983 353.876C197.273 355.169 197.284 356.517 197.017 357.816C196.75 359.115 196.211 360.333 195.441 361.377C194.67 362.422 193.689 363.266 192.569 363.847C191.45 364.427 190.222 364.729 188.978 364.73H89.379C87.211 364.731 85.105 363.958 83.3957 362.532C81.6864 361.107 80.4719 359.111 79.9451 356.863Z" fill="#3FBDF1"/>
<path d="M79.9451 356.863L55.4562 289.785C55.1528 288.487 55.1303 287.132 55.3897 285.823C55.6495 284.515 56.1849 283.286 56.955 282.232C57.7254 281.177 58.7101 280.324 59.8351 279.738C60.9598 279.151 62.1949 278.846 63.4462 278.846H160.717C162.902 278.846 165.022 279.632 166.738 281.078C168.453 282.523 169.664 284.544 170.174 286.814L196.983 353.876C197.273 355.169 197.284 356.517 197.017 357.816C196.75 359.115 196.211 360.333 195.441 361.377C194.67 362.422 193.689 363.266 192.569 363.847C191.45 364.427 190.222 364.729 188.978 364.73H89.379C87.211 364.731 85.105 363.958 83.3957 362.532C81.6864 361.107 80.4719 359.111 79.9451 356.863Z" stroke="black" stroke-width="5.47" stroke-linecap="square" stroke-linejoin="round"/>
<path d="M83.5284 354.161L60.9346 292.253C60.6552 291.056 60.6349 289.806 60.8748 288.599C61.1147 287.391 61.6087 286.258 62.3198 285.286C63.0304 284.313 63.9392 283.527 64.9766 282.986C66.0143 282.444 67.1536 282.163 68.3079 282.163H158.044C160.059 282.162 162.015 282.887 163.598 284.22C165.18 285.553 166.297 287.417 166.767 289.512L191.504 351.383C191.771 352.577 191.782 353.82 191.535 355.019C191.289 356.218 190.791 357.341 190.08 358.305C189.369 359.268 188.463 360.047 187.43 360.583C186.397 361.119 185.264 361.397 184.116 361.397H92.2291C90.2321 361.399 88.292 360.688 86.7161 359.378C85.14 358.067 84.0183 356.231 83.5284 354.161Z" fill="#3FBDF1"/>
<path d="M275.578 344.45L292.784 387.017" stroke="black" stroke-width="5.47" stroke-miterlimit="10"/>
<path d="M357.2 387.017H18.8" stroke="black" stroke-width="5.47" stroke-miterlimit="10"/>
<path d="M197.163 194.893C194.373 197.84 190.207 197.836 187.835 195.11" stroke="black" stroke-width="5.47" stroke-miterlimit="10"/>
<path d="M122.809 183.77C124.332 182.246 126.14 180.707 128.047 181.382C130.103 182.114 130.679 184.871 130.912 187.171C131.571 193.49 132.229 199.803 132.886 206.109C133.721 214.149 134.6 222.382 137.725 229.771C139.236 233.382 141.371 236.655 144.019 239.419" stroke="black" stroke-width="5.47" stroke-miterlimit="10"/>
<path d="M161.131 239.371V239.238C160.921 236.647 160.003 234.179 158.491 232.141C156.98 230.104 154.941 228.586 152.63 227.777C150.213 232.022 147.322 235.937 144.019 239.435C135.361 248.639 124.239 254.735 112.195 256.878C112.774 259.342 113.966 261.585 114.789 263.957C115.612 266.329 116.022 269.074 115.022 271.362C113.759 274.28 110.134 273.898 107.615 273.251C107.589 273.251 107.574 273.251 107.547 273.251" stroke="black" stroke-width="5.47" stroke-miterlimit="10"/>
<path d="M94.5791 198.399C90.3679 199.368 86.104 200.072 81.8251 200.703C83.9646 222.073 88.0103 243.653 97.8014 262.446C99.8431 266.374 102.46 270.671 106.37 272.721C106.769 272.928 107.181 273.104 107.604 273.248C111.525 274.627 116.353 273.497 120.068 272.195C129.092 269.043 138.248 265.26 146.475 260.203C153.577 255.849 162.052 248.782 161.139 239.371C161.05 238.335 160.852 237.313 160.548 236.324" stroke="black" stroke-width="5.47" stroke-miterlimit="10"/>
<path d="M164.996 155.77C165.627 158.583 167.068 161.114 169.115 163.005C171.162 164.896 173.713 166.052 176.408 166.311C176.632 165.15 177.117 164.065 177.822 163.151C180.83 159.36 182.112 166.472 191.734 161.366C205.067 154.275 210.128 158.343 210.128 158.343C210.571 158.697 210.504 161.961 210.579 162.556C210.955 165.945 211.293 169.318 211.665 172.702C211.891 174.769 212.113 176.819 212.323 178.87C212.505 178.521 212.706 178.183 212.925 177.86C214.14 173.265 216.309 167.839 220.986 170.174C221.934 170.668 222.758 171.394 223.393 172.292C226.495 176.65 224.145 180.859 220.9 183.975C220.087 184.941 219.178 185.81 218.189 186.568C218.723 187.75 220.904 192.441 220.904 192.457C221.129 192.931 228.751 183.709 229.319 182.704C230.167 180.242 230.622 177.645 230.665 175.022C230.789 164.237 226.683 151.682 218.512 145.495C216.486 143.963 217.133 142.488 217.008 140.406C217 140.293 216.96 140.186 216.893 140.099C216.826 140.011 216.736 139.947 216.635 139.915C216.533 139.884 216.425 139.886 216.325 139.921C216.224 139.956 216.136 140.023 216.072 140.113C213.512 143.264 207.172 142.951 207.172 142.951C185.169 137.057 177.773 147.518 173.332 149.383C171.52 150.116 169.526 150.152 167.692 149.483C167.584 150.132 167.312 150.737 166.906 151.233C166.5 151.729 165.975 152.097 165.387 152.297L165.5 153.386C165.596 154.22 165.418 155.062 164.996 155.77Z" fill="#3FBDF1"/>
<path d="M176.423 166.328C173.728 166.069 171.177 164.913 169.13 163.022C167.083 161.131 165.642 158.601 165.011 155.788C164.764 154.709 164.608 153.608 164.545 152.5L164.718 152.479C164.955 152.461 165.187 152.406 165.41 152.319C165.998 152.118 166.522 151.751 166.929 151.255C167.335 150.759 167.607 150.153 167.715 149.505C167.784 149.145 167.798 148.775 167.756 148.411L167.192 143.089C167.192 143.089 171.17 146.252 175.584 144.403C179.999 142.554 187.41 132.094 209.424 137.971C209.424 137.971 214.395 138.285 216.944 135.133C217.009 135.043 217.097 134.976 217.197 134.941C217.298 134.906 217.405 134.904 217.507 134.936C217.608 134.968 217.698 135.032 217.765 135.119C217.832 135.207 217.872 135.314 217.881 135.427C218.012 137.513 218.734 138.988 220.765 140.516C228.935 146.707 233.041 159.257 232.913 170.043C232.876 174.517 231.484 178.935 229.337 182.726C228.77 183.731 221.148 192.953 220.923 192.478C220.923 192.478 218.742 187.771 218.208 186.589L218.08 186.328L218.324 186.155C219.232 185.496 220.099 184.775 220.919 183.996C224.16 180.881 226.514 176.672 223.412 172.314C222.777 171.415 221.952 170.689 221.005 170.196C216.313 167.86 214.158 173.287 212.944 177.882C212.708 178.76 212.563 179.663 212.511 180.575C212.455 180.012 212.399 179.47 212.342 178.907C212.132 176.857 211.91 174.807 211.684 172.74C211.308 169.355 210.955 165.983 210.598 162.594C210.541 162.015 210.598 158.735 210.146 158.381C210.146 158.381 205.082 154.313 191.752 161.404C182.131 166.509 180.848 159.394 177.84 163.189C177.136 164.103 176.65 165.188 176.427 166.348C176.358 166.721 176.314 167.099 176.295 167.478C176.288 167.527 176.288 167.577 176.295 167.627C176.25 168.459 176.235 169.287 176.216 170.099C176.145 177.934 176.949 186.119 179.826 193.395C183.323 202.215 192.576 210.914 202.198 206.802C205.206 205.511 207.902 203.433 210.368 201.226" stroke="black" stroke-width="5.47" stroke-miterlimit="10"/>
<path d="M183.007 185.437C183.964 185.095 184.426 183.813 184.039 182.576C183.652 181.337 182.562 180.611 181.604 180.954C180.647 181.296 180.186 182.577 180.573 183.815C180.961 185.054 182.051 185.78 183.007 185.437Z" fill="black"/>
<path d="M197.324 184.947C198.281 184.605 198.743 183.324 198.355 182.086C197.968 180.847 196.878 180.121 195.921 180.464C194.964 180.806 194.502 182.088 194.889 183.325C195.277 184.563 196.367 185.289 197.324 184.947Z" fill="black"/>
<path d="M191.85 187.598C191.85 187.598 187.086 190.489 186.797 187.49C186.707 186.565 185.541 177.508 185.541 177.508C185.541 177.508 181.691 173.146 175.791 176.37" stroke="black" stroke-width="5.47" stroke-miterlimit="10"/>
<path d="M190.779 174.97C190.779 174.97 198.472 170.862 203.563 176.783" stroke="black" stroke-width="5.47" stroke-miterlimit="10"/>
<path d="M197.832 207.81L198.716 212.658C195.93 215.404 193.96 219.34 194.535 223.484C195.046 227.159 197.859 230.58 200.743 232.505C205.563 235.721 211.974 235.468 217.163 233.422C222.235 231.412 226.623 227.597 229.804 222.942C231.302 220.691 232.3 218.105 232.721 215.38V215.332" stroke="black" stroke-width="5.47" stroke-miterlimit="10"/>
<path d="M198.716 212.658L200.438 221.414" stroke="black" stroke-width="5.47" stroke-miterlimit="10"/>
<path d="M223.07 190.368L225.671 208.839C225.928 210.648 226.783 212.297 228.081 213.489C229.379 214.68 231.033 215.334 232.744 215.332C240.842 216.735 248.83 218.783 256.643 221.458C287.162 231.983 305.947 261.377 311.253 294.22C313.46 307.973 313.625 322.396 310.854 336.072C309.279 343.771 307 352.418 301.71 358.182C294.84 365.7 284.297 362.604 276.18 359.208C250.976 348.727 230.014 330.083 211.914 308.736C202.235 297.32 189.73 288.17 189.73 288.17" stroke="black" stroke-width="5.47" stroke-miterlimit="10"/>
<path d="M91.8568 340.306C89.0293 340.278 86.5665 337.838 85.931 334.441C84.6752 327.759 84.3443 317.428 93.5074 315.173C104.957 312.359 113.763 325.689 118.079 334.115C119.53 336.929 117.887 340.547 115.184 340.547L91.8568 340.306Z" fill="#D7E8F0"/>
<path d="M95.6367 309.5C98.0672 307.77 98.1048 303.262 95.7198 299.431C93.3352 295.599 89.4316 293.895 87.0008 295.624C84.5699 297.353 84.5327 301.861 86.9173 305.693C89.3023 309.525 93.2059 311.229 95.6367 309.5Z" fill="#D7E8F0"/>
<path d="M283.794 369.485C283.617 369.514 283.418 369.542 283.245 369.586H283.177L256.432 369.437L216.302 369.216C216.147 369.216 215.997 369.216 215.847 369.216C215.548 369.209 215.251 369.184 214.955 369.144C217.674 368.806 220.195 367.454 222.073 365.325C223.951 363.197 225.067 360.428 225.224 357.506C225.232 357.355 225.232 357.203 225.224 357.052V356.818C225.213 353.96 224.281 351.192 222.586 348.982C220.89 346.772 218.534 345.253 215.914 344.682C215.64 344.61 215.339 344.566 215.049 344.521C215.504 344.477 215.956 344.445 216.396 344.445L250.299 344.638L256.541 344.666L264.96 344.71C267.842 344.992 270.523 346.412 272.478 348.695C274.432 350.977 275.52 353.957 275.529 357.052C275.529 357.636 275.488 358.219 275.405 358.796C275.004 361.743 273.628 364.437 271.526 366.39C269.424 368.343 266.737 369.424 263.952 369.437H284.324C283.151 369.437 283.478 369.437 283.794 369.485Z" fill="white"/>
<path d="M229.544 384.437C230.308 385.259 231.217 385.91 232.218 386.353C233.219 386.796 234.293 387.022 235.376 387.018H215.681C211.921 387.018 209.868 386.037 208.372 384.437C206.834 382.786 205.968 380.553 205.962 378.223C205.962 373.399 209.661 369.443 215.681 369.443H235.376C233.75 369.44 232.16 369.953 230.807 370.918C229.454 371.883 228.4 373.255 227.777 374.861C227.155 376.467 226.992 378.234 227.31 379.939C227.628 381.644 228.412 383.209 229.563 384.437H229.544Z" fill="#D7E8F0"/>
<path d="M294.588 357.273C294.584 359.13 294.179 360.96 293.408 362.623C292.857 363.881 292.1 365.023 291.174 365.996C289.647 367.614 287.73 368.745 285.636 369.264C284.773 369.477 283.89 369.586 283.004 369.586C283.184 369.542 283.38 369.514 283.553 369.485C283.237 369.453 282.91 369.441 284.087 369.441H263.711C266.498 369.43 269.188 368.349 271.291 366.395C273.394 364.441 274.772 361.745 275.172 358.796C275.255 358.219 275.296 357.636 275.296 357.052C275.287 353.957 274.199 350.976 272.243 348.694C270.288 346.411 267.606 344.991 264.723 344.71L275.721 344.77L283.068 344.815C286.138 344.842 289.073 346.168 291.232 348.503C293.391 350.837 294.597 353.99 294.588 357.273Z" fill="#3FBDF1"/>
<path d="M294.588 357.269C294.566 360.554 293.326 363.695 291.141 366.005C288.957 368.314 286.005 369.604 282.932 369.591L216.035 369.221C215.587 369.221 215.14 369.185 214.688 369.137C217.508 368.795 220.113 367.359 222.009 365.101C223.905 362.844 224.96 359.921 224.975 356.886C224.99 353.852 223.963 350.918 222.09 348.639C220.216 346.36 217.625 344.895 214.809 344.522C215.256 344.472 215.705 344.448 216.155 344.45L283.053 344.82C286.125 344.842 289.063 346.165 291.225 348.498C293.387 350.831 294.596 353.985 294.588 357.269Z" stroke="black" stroke-width="5.47" stroke-linecap="square" stroke-linejoin="round"/>
<path d="M275.288 357.048C275.282 360.332 274.06 363.48 271.887 365.802C269.716 368.124 266.772 369.431 263.7 369.438H216.102C215.653 369.435 215.203 369.408 214.756 369.357C217.574 368.999 220.171 367.549 222.056 365.281C223.941 363.012 224.981 360.084 224.981 357.05C224.981 354.016 223.941 351.088 222.056 348.819C220.171 346.551 217.574 345.101 214.756 344.743C215.204 344.699 215.655 344.666 216.102 344.666H263.7C266.77 344.674 269.712 345.981 271.884 348.3C274.055 350.621 275.279 353.766 275.288 357.048Z" stroke="black" stroke-width="5.47" stroke-linecap="square" stroke-linejoin="round"/>
<path d="M205.962 378.225C205.961 379.378 206.174 380.52 206.586 381.585C207 382.65 207.605 383.617 208.368 384.432C209.872 386.04 211.914 387.017 215.677 387.017H284.083C282.906 387.017 283.226 386.993 283.545 386.96C281.544 386.709 279.699 385.68 278.359 384.07C277.02 382.46 276.28 380.38 276.28 378.225C276.28 376.07 277.02 373.991 278.359 372.38C279.699 370.77 281.544 369.742 283.545 369.489C283.226 369.457 282.906 369.433 284.083 369.433H215.677C209.654 369.437 205.962 373.393 205.962 378.225Z" stroke="black" stroke-width="5.47" stroke-linecap="square" stroke-linejoin="round"/>
<path d="M227.13 378.225C227.135 380.555 228.003 382.788 229.544 384.436C231.085 386.084 233.174 387.011 235.353 387.017H282.59C282.906 387.017 283.226 386.993 283.545 386.96C281.544 386.709 279.698 385.68 278.359 384.07C277.02 382.46 276.28 380.38 276.28 378.225C276.28 376.07 277.02 373.991 278.359 372.38C279.698 370.77 281.544 369.742 283.545 369.489C283.226 369.457 282.906 369.433 282.59 369.433H235.353C233.175 369.44 231.086 370.368 229.545 372.015C228.005 373.663 227.136 375.895 227.13 378.225Z" stroke="black" stroke-width="5.47" stroke-linecap="square" stroke-linejoin="round"/>
<path d="M150.558 311.148H129.457C128.491 311.146 127.547 310.844 126.739 310.279C125.932 309.714 125.295 308.91 124.907 307.964C124.758 307.612 124.693 307.226 124.721 306.84C124.748 306.455 124.867 306.083 125.065 305.76C125.263 305.436 125.535 305.172 125.854 304.991C126.174 304.81 126.531 304.718 126.892 304.724H149.325C148.268 306.626 148.806 309.267 150.558 311.148Z" fill="#D7E8F0"/>
<path d="M164.203 308.824C164.202 309.439 163.973 310.028 163.566 310.463C163.16 310.898 162.609 311.142 162.033 311.143H150.558C148.806 309.266 148.268 306.625 149.325 304.711H159.458C160.422 304.712 161.366 305.011 162.174 305.573C162.982 306.135 163.621 306.937 164.011 307.879C164.133 308.178 164.198 308.498 164.203 308.824Z" fill="#3FBDF1"/>
<path d="M158.924 311.148C158.865 311.27 158.795 311.387 158.717 311.497C157.213 313.696 153.946 313.909 151.408 311.924C151.108 311.687 150.824 311.427 150.558 311.148C148.806 309.27 148.268 306.629 149.325 304.716C149.384 304.593 149.453 304.476 149.531 304.366C151.035 302.151 154.288 301.954 156.826 303.924C157.132 304.168 157.419 304.437 157.687 304.728C159.424 306.597 159.965 309.222 158.924 311.148Z" fill="white"/>
<path d="M169.508 322.987C169.504 323.603 169.273 324.192 168.864 324.625C168.456 325.059 167.903 325.303 167.328 325.303H145.185C146.253 323.381 145.719 320.76 143.963 318.871H164.763C165.729 318.871 166.674 319.172 167.482 319.736C168.291 320.301 168.928 321.105 169.317 322.051C169.441 322.345 169.506 322.664 169.508 322.987Z" fill="#3FBDF1"/>
<path d="M145.185 325.302H134.766C133.801 325.302 132.857 325.003 132.049 324.441C131.241 323.879 130.602 323.077 130.213 322.134C130.09 321.839 130.025 321.52 130.021 321.197C130.02 320.893 130.076 320.592 130.185 320.31C130.293 320.029 130.453 319.774 130.654 319.559C130.855 319.344 131.094 319.173 131.357 319.057C131.62 318.941 131.902 318.881 132.187 318.882H143.963C145.719 320.759 146.264 323.38 145.185 325.302Z" fill="#D7E8F0"/>
<path d="M145.185 325.302C145.136 325.428 145.071 325.547 144.993 325.656C143.489 327.867 140.233 328.068 137.699 326.094C137.392 325.85 137.103 325.581 136.834 325.29C135.093 323.413 134.559 320.792 135.601 318.858C135.661 318.734 135.73 318.616 135.807 318.504C137.311 316.305 140.579 316.092 143.113 318.082C143.415 318.317 143.699 318.576 143.963 318.858C145.719 320.759 146.264 323.381 145.185 325.302Z" fill="white"/>
<path d="M152.562 339.361H139.304C138.34 339.36 137.397 339.06 136.589 338.498C135.781 337.935 135.142 337.135 134.751 336.193C134.602 335.84 134.538 335.453 134.566 335.067C134.594 334.68 134.713 334.308 134.911 333.984C135.109 333.66 135.381 333.394 135.7 333.212C136.02 333.029 136.377 332.936 136.74 332.941H151.329C150.283 334.866 150.821 337.483 152.562 339.361Z" fill="#3FBDF1"/>
<path d="M174.047 337.061C174.044 337.672 173.814 338.258 173.408 338.689C173.002 339.12 172.453 339.361 171.881 339.36H152.562C150.821 337.483 150.283 334.862 151.329 332.928H169.302C170.267 332.928 171.212 333.229 172.021 333.794C172.829 334.359 173.466 335.163 173.855 336.108C173.979 336.409 174.044 336.733 174.047 337.061Z" fill="#D7E8F0"/>
<path d="M160.928 339.361C160.868 339.484 160.799 339.602 160.721 339.715C159.217 341.926 155.965 342.127 153.427 340.153C153.122 339.907 152.834 339.639 152.566 339.349C150.825 337.471 150.287 334.85 151.332 332.917C151.39 332.792 151.458 332.674 151.535 332.563C153.039 330.364 156.307 330.175 158.845 332.141C159.146 332.375 159.431 332.635 159.695 332.917C161.447 334.818 161.981 337.455 160.928 339.361Z" fill="white"/>
<path d="M60.7654 211.199L61.0963 211.3L60.9722 211.814C60.8936 211.613 60.8244 211.408 60.7654 211.199Z" fill="#353642"/>
<path d="M119.608 243.361C124.558 241.807 127.158 235.407 125.417 229.065C123.675 222.723 118.252 218.841 113.302 220.395C108.353 221.948 105.752 228.349 107.493 234.69C109.235 241.032 114.659 244.914 119.608 243.361Z" fill="#D7E8F0"/>
</svg>
