<svg width="60" height="11" viewBox="0 0 60 11" fill="none" xmlns="http://www.w3.org/2000/svg">
<path d="M2.432 1.432C3.552 1.432 4.368 1.652 4.88 2.092C5.392 2.532 5.648 3.152 5.648 3.952C5.648 4.304 5.588 4.644 5.468 4.972C5.356 5.292 5.168 5.58 4.904 5.836C4.64 6.092 4.288 6.296 3.848 6.448C3.408 6.592 2.868 6.664 2.228 6.664H1.244V10H0.164V1.432H2.432ZM2.336 2.356H1.244V5.74H2.108C2.652 5.74 3.104 5.684 3.464 5.572C3.824 5.452 4.092 5.264 4.268 5.008C4.444 4.752 4.532 4.416 4.532 4C4.532 3.448 4.356 3.036 4.004 2.764C3.652 2.492 3.096 2.356 2.336 2.356ZM9.72163 3.46C10.5056 3.46 11.0856 3.632 11.4616 3.976C11.8376 4.32 12.0256 4.868 12.0256 5.62V10H11.2576L11.0536 9.088H11.0056C10.8216 9.32 10.6296 9.516 10.4296 9.676C10.2376 9.828 10.0136 9.94 9.75763 10.012C9.50963 10.084 9.20563 10.12 8.84563 10.12C8.46163 10.12 8.11363 10.052 7.80163 9.916C7.49763 9.78 7.25763 9.572 7.08163 9.292C6.90563 9.004 6.81763 8.644 6.81763 8.212C6.81763 7.572 7.06963 7.08 7.57363 6.736C8.07763 6.384 8.85363 6.192 9.90163 6.16L10.9936 6.124V5.74C10.9936 5.204 10.8776 4.832 10.6456 4.624C10.4136 4.416 10.0856 4.312 9.66163 4.312C9.32563 4.312 9.00563 4.364 8.70163 4.468C8.39763 4.564 8.11363 4.676 7.84962 4.804L7.52563 4.012C7.80563 3.86 8.13763 3.732 8.52163 3.628C8.90563 3.516 9.30563 3.46 9.72163 3.46ZM10.0336 6.892C9.23363 6.924 8.67763 7.052 8.36563 7.276C8.06163 7.5 7.90963 7.816 7.90963 8.224C7.90963 8.584 8.01763 8.848 8.23363 9.016C8.45763 9.184 8.74163 9.268 9.08563 9.268C9.62963 9.268 10.0816 9.12 10.4416 8.824C10.8016 8.52 10.9816 8.056 10.9816 7.432V6.856L10.0336 6.892ZM16.1602 9.256C16.3202 9.256 16.4842 9.244 16.6522 9.22C16.8202 9.188 16.9562 9.156 17.0602 9.124V9.928C16.9482 9.984 16.7882 10.028 16.5802 10.06C16.3722 10.1 16.1722 10.12 15.9802 10.12C15.6442 10.12 15.3322 10.064 15.0442 9.952C14.7642 9.832 14.5362 9.628 14.3602 9.34C14.1842 9.052 14.0962 8.648 14.0962 8.128V4.384H13.1842V3.88L14.1082 3.46L14.5282 2.092H15.1522V3.568H17.0122V4.384H15.1522V8.104C15.1522 8.496 15.2442 8.788 15.4282 8.98C15.6202 9.164 15.8642 9.256 16.1602 9.256ZM19.4041 3.556C19.4041 3.708 19.3961 3.864 19.3801 4.024C19.3721 4.184 19.3601 4.328 19.3441 4.456H19.4161C19.5521 4.232 19.7241 4.048 19.9321 3.904C20.1401 3.76 20.3721 3.652 20.6281 3.58C20.8841 3.5 21.1481 3.46 21.4201 3.46C21.9401 3.46 22.3721 3.544 22.7161 3.712C23.0681 3.872 23.3321 4.124 23.5081 4.468C23.6841 4.812 23.7721 5.26 23.7721 5.812V10H22.7281V5.884C22.7281 5.364 22.6121 4.976 22.3801 4.72C22.1481 4.464 21.7841 4.336 21.2881 4.336C20.8081 4.336 20.4321 4.428 20.1601 4.612C19.8881 4.788 19.6921 5.052 19.5721 5.404C19.4601 5.748 19.4041 6.172 19.4041 6.676V10H18.3481V0.879999H19.4041V3.556Z" fill="white"/>
<path d="M31.2207 1.62109V2.5H26.8262V5.3125H31.0156V6.19141H26.8262V10H25.7422V1.62109H31.2207ZM33.5996 3.84766V10H32.5156V3.84766H33.5996ZM33.5996 1.62109V2.64648H32.5156V1.62109H33.5996ZM35.4805 10V3.84766H36.2129L36.4062 4.63281C37.0352 4.10938 37.7266 3.84766 38.4805 3.84766C40.0156 3.84766 40.7832 4.61133 40.7832 6.13867V10H39.6992V6.12109C39.6992 5.20703 39.2441 4.75 38.334 4.75C37.7129 4.75 37.123 5.00977 36.5645 5.5293V10H35.4805ZM46.6777 5.10156C46.2402 4.89062 45.7402 4.78516 45.1777 4.78516C43.9395 4.78516 43.3203 5.44336 43.3203 6.75977C43.3203 8.31836 43.9395 9.09766 45.1777 9.09766C45.7402 9.09766 46.2402 9.02148 46.6777 8.86914V5.10156ZM47.7617 9.63086C47.0156 9.87695 46.0957 10 45.002 10C43.1699 10 42.2539 8.93359 42.2539 6.80078C42.2539 4.83203 43.2266 3.84766 45.1719 3.84766C45.7031 3.84766 46.2051 3.94531 46.6777 4.14062V1.62109H47.7617V9.63086ZM52.0566 3.84766C53.8066 3.84766 54.6816 4.71289 54.6816 6.44336C54.6816 6.68945 54.6641 6.95312 54.6289 7.23438H50.3105C50.3105 8.49219 51.0449 9.12109 52.5137 9.12109C53.2129 9.12109 53.834 9.04297 54.377 8.88672V9.76562C53.834 9.92188 53.1738 10 52.3965 10C50.2832 10 49.2266 8.95117 49.2266 6.85352C49.2266 4.84961 50.1699 3.84766 52.0566 3.84766ZM50.3105 6.33203H53.6387C53.6152 5.25391 53.0879 4.71484 52.0566 4.71484C50.9629 4.71484 50.3809 5.25391 50.3105 6.33203ZM56.1406 10V3.84766H56.873L57.0664 4.63281C57.6055 4.10938 58.2539 3.84766 59.0117 3.84766V4.75C58.2773 4.75 57.6816 5.00977 57.2246 5.5293V10H56.1406Z" fill="#E63946"/>
</svg>
