<svg width="119" height="20" viewBox="0 0 119 20" fill="none" xmlns="http://www.w3.org/2000/svg">
<path d="M4.864 1.864C7.104 1.864 8.736 2.304 9.76 3.184C10.784 4.064 11.296 5.304 11.296 6.904C11.296 7.608 11.176 8.288 10.936 8.944C10.712 9.584 10.336 10.16 9.808 10.672C9.28 11.184 8.576 11.592 7.696 11.896C6.816 12.184 5.736 12.328 4.456 12.328H2.488V19H0.328V1.864H4.864ZM4.672 3.712H2.488V10.48H4.216C5.304 10.48 6.208 10.368 6.928 10.144C7.648 9.904 8.184 9.528 8.536 9.016C8.888 8.504 9.064 7.832 9.064 7C9.064 5.896 8.712 5.072 8.008 4.528C7.304 3.984 6.192 3.712 4.672 3.712ZM19.4433 5.92C21.0113 5.92 22.1713 6.264 22.9233 6.952C23.6753 7.64 24.0513 8.736 24.0513 10.24V19H22.5153L22.1073 17.176H22.0113C21.6433 17.64 21.2593 18.032 20.8593 18.352C20.4753 18.656 20.0273 18.88 19.5153 19.024C19.0193 19.168 18.4113 19.24 17.6913 19.24C16.9233 19.24 16.2273 19.104 15.6033 18.832C14.9953 18.56 14.5153 18.144 14.1633 17.584C13.8113 17.008 13.6353 16.288 13.6353 15.424C13.6353 14.144 14.1393 13.16 15.1473 12.472C16.1553 11.768 17.7073 11.384 19.8033 11.32L21.9873 11.248V10.48C21.9873 9.408 21.7553 8.664 21.2913 8.248C20.8273 7.832 20.1713 7.624 19.3233 7.624C18.6513 7.624 18.0113 7.728 17.4033 7.936C16.7953 8.128 16.2273 8.352 15.6992 8.608L15.0513 7.024C15.6113 6.72 16.2753 6.464 17.0433 6.256C17.8113 6.032 18.6113 5.92 19.4433 5.92ZM20.0673 12.784C18.4673 12.848 17.3553 13.104 16.7313 13.552C16.1233 14 15.8193 14.632 15.8193 15.448C15.8193 16.168 16.0353 16.696 16.4673 17.032C16.9153 17.368 17.4833 17.536 18.1713 17.536C19.2593 17.536 20.1633 17.24 20.8833 16.648C21.6033 16.04 21.9633 15.112 21.9633 13.864V12.712L20.0673 12.784ZM32.3204 17.512C32.6404 17.512 32.9684 17.488 33.3044 17.44C33.6404 17.376 33.9124 17.312 34.1204 17.248V18.856C33.8964 18.968 33.5764 19.056 33.1604 19.12C32.7444 19.2 32.3444 19.24 31.9604 19.24C31.2884 19.24 30.6644 19.128 30.0884 18.904C29.5284 18.664 29.0724 18.256 28.7204 17.68C28.3684 17.104 28.1924 16.296 28.1924 15.256V7.768H26.3684V6.76L28.2164 5.92L29.0564 3.184H30.3044V6.136H34.0244V7.768H30.3044V15.208C30.3044 15.992 30.4884 16.576 30.8564 16.96C31.2404 17.328 31.7284 17.512 32.3204 17.512ZM38.8083 6.112C38.8083 6.416 38.7923 6.728 38.7603 7.048C38.7443 7.368 38.7203 7.656 38.6883 7.912H38.8323C39.1043 7.464 39.4483 7.096 39.8643 6.808C40.2803 6.52 40.7443 6.304 41.2563 6.16C41.7683 6 42.2963 5.92 42.8403 5.92C43.8803 5.92 44.7443 6.088 45.4323 6.424C46.1363 6.744 46.6643 7.248 47.0163 7.936C47.3683 8.624 47.5443 9.52 47.5443 10.624V19H45.4563V10.768C45.4563 9.728 45.2243 8.952 44.7603 8.44C44.2963 7.928 43.5683 7.672 42.5763 7.672C41.6163 7.672 40.8643 7.856 40.3203 8.224C39.7763 8.576 39.3843 9.104 39.1443 9.808C38.9203 10.496 38.8083 11.344 38.8083 12.352V19H36.6963V0.759999H38.8083V6.112Z" fill="black"/>
<path d="M62.4414 2.24219V4H53.6523V9.625H62.0312V11.3828H53.6523V19H51.4844V2.24219H62.4414ZM67.1992 6.69531V19H65.0312V6.69531H67.1992ZM67.1992 2.24219V4.29297H65.0312V2.24219H67.1992ZM70.9609 19V6.69531H72.4258L72.8125 8.26562C74.0703 7.21875 75.4531 6.69531 76.9609 6.69531C80.0312 6.69531 81.5664 8.22266 81.5664 11.2773V19H79.3984V11.2422C79.3984 9.41406 78.4883 8.5 76.668 8.5C75.4258 8.5 74.2461 9.01953 73.1289 10.0586V19H70.9609ZM93.3555 9.20312C92.4805 8.78125 91.4805 8.57031 90.3555 8.57031C87.8789 8.57031 86.6406 9.88672 86.6406 12.5195C86.6406 15.6367 87.8789 17.1953 90.3555 17.1953C91.4805 17.1953 92.4805 17.043 93.3555 16.7383V9.20312ZM95.5234 18.2617C94.0312 18.7539 92.1914 19 90.0039 19C86.3398 19 84.5078 16.8672 84.5078 12.6016C84.5078 8.66406 86.4531 6.69531 90.3438 6.69531C91.4062 6.69531 92.4102 6.89062 93.3555 7.28125V2.24219H95.5234V18.2617ZM104.113 6.69531C107.613 6.69531 109.363 8.42578 109.363 11.8867C109.363 12.3789 109.328 12.9062 109.258 13.4688H100.621C100.621 15.9844 102.09 17.2422 105.027 17.2422C106.426 17.2422 107.668 17.0859 108.754 16.7734V18.5312C107.668 18.8438 106.348 19 104.793 19C100.566 19 98.4531 16.9023 98.4531 12.707C98.4531 8.69922 100.34 6.69531 104.113 6.69531ZM100.621 11.6641H107.277C107.23 9.50781 106.176 8.42969 104.113 8.42969C101.926 8.42969 100.762 9.50781 100.621 11.6641ZM112.281 19V6.69531H113.746L114.133 8.26562C115.211 7.21875 116.508 6.69531 118.023 6.69531V8.5C116.555 8.5 115.363 9.01953 114.449 10.0586V19H112.281Z" fill="#E63946"/>
</svg>
