<svg width="178" height="29" viewBox="0 0 178 29" fill="none" xmlns="http://www.w3.org/2000/svg">
<path d="M7.296 2.296C10.656 2.296 13.104 2.956 14.64 4.276C16.176 5.596 16.944 7.456 16.944 9.856C16.944 10.912 16.764 11.932 16.404 12.916C16.068 13.876 15.504 14.74 14.712 15.508C13.92 16.276 12.864 16.888 11.544 17.344C10.224 17.776 8.604 17.992 6.684 17.992H3.732V28H0.492V2.296H7.296ZM7.008 5.068H3.732V15.22H6.324C7.956 15.22 9.312 15.052 10.392 14.716C11.472 14.356 12.276 13.792 12.804 13.024C13.332 12.256 13.596 11.248 13.596 10C13.596 8.344 13.068 7.108 12.012 6.292C10.956 5.476 9.288 5.068 7.008 5.068ZM29.1649 8.38C31.5169 8.38 33.2569 8.896 34.3849 9.928C35.5129 10.96 36.0769 12.604 36.0769 14.86V28H33.7729L33.1609 25.264H33.0169C32.4649 25.96 31.8889 26.548 31.2889 27.028C30.7129 27.484 30.0409 27.82 29.2729 28.036C28.5289 28.252 27.6169 28.36 26.5369 28.36C25.3849 28.36 24.3409 28.156 23.4049 27.748C22.4929 27.34 21.7729 26.716 21.2449 25.876C20.7169 25.012 20.4529 23.932 20.4529 22.636C20.4529 20.716 21.2089 19.24 22.7209 18.208C24.2329 17.152 26.5609 16.576 29.7049 16.48L32.9809 16.372V15.22C32.9809 13.612 32.6329 12.496 31.9369 11.872C31.2409 11.248 30.2569 10.936 28.9849 10.936C27.9769 10.936 27.0169 11.092 26.1049 11.404C25.1929 11.692 24.3409 12.028 23.5489 12.412L22.5769 10.036C23.4169 9.58 24.4129 9.196 25.5649 8.884C26.7169 8.548 27.9169 8.38 29.1649 8.38ZM30.1009 18.676C27.7009 18.772 26.0329 19.156 25.0969 19.828C24.1849 20.5 23.7289 21.448 23.7289 22.672C23.7289 23.752 24.0529 24.544 24.7009 25.048C25.3729 25.552 26.2249 25.804 27.2569 25.804C28.8889 25.804 30.2449 25.36 31.3249 24.472C32.4049 23.56 32.9449 22.168 32.9449 20.296V18.568L30.1009 18.676ZM48.4806 25.768C48.9606 25.768 49.4526 25.732 49.9566 25.66C50.4606 25.564 50.8686 25.468 51.1806 25.372V27.784C50.8446 27.952 50.3646 28.084 49.7406 28.18C49.1166 28.3 48.5166 28.36 47.9406 28.36C46.9326 28.36 45.9966 28.192 45.1326 27.856C44.2926 27.496 43.6086 26.884 43.0806 26.02C42.5526 25.156 42.2886 23.944 42.2886 22.384V11.152H39.5526V9.64L42.3246 8.38L43.5846 4.276H45.4566V8.704H51.0366V11.152H45.4566V22.312C45.4566 23.488 45.7326 24.364 46.2846 24.94C46.8606 25.492 47.5926 25.768 48.4806 25.768ZM58.2124 8.668C58.2124 9.124 58.1884 9.592 58.1404 10.072C58.1164 10.552 58.0804 10.984 58.0324 11.368H58.2484C58.6564 10.696 59.1724 10.144 59.7964 9.712C60.4204 9.28 61.1164 8.956 61.8844 8.74C62.6524 8.5 63.4444 8.38 64.2604 8.38C65.8204 8.38 67.1164 8.632 68.1484 9.136C69.2044 9.616 69.9964 10.372 70.5244 11.404C71.0524 12.436 71.3164 13.78 71.3164 15.436V28H68.1844V15.652C68.1844 14.092 67.8364 12.928 67.1404 12.16C66.4444 11.392 65.3524 11.008 63.8644 11.008C62.4244 11.008 61.2964 11.284 60.4804 11.836C59.6644 12.364 59.0764 13.156 58.7164 14.212C58.3804 15.244 58.2124 16.516 58.2124 18.028V28H55.0444V0.639998H58.2124V8.668Z" fill="black"/>
<path d="M93.6621 2.86328V5.5H80.4785V13.9375H93.0469V16.5742H80.4785V28H77.2266V2.86328H93.6621ZM100.799 9.54297V28H97.5469V9.54297H100.799ZM100.799 2.86328V5.93945H97.5469V2.86328H100.799ZM106.441 28V9.54297H108.639L109.219 11.8984C111.105 10.3281 113.18 9.54297 115.441 9.54297C120.047 9.54297 122.35 11.834 122.35 16.416V28H119.098V16.3633C119.098 13.6211 117.732 12.25 115.002 12.25C113.139 12.25 111.369 13.0293 109.693 14.5879V28H106.441ZM140.033 13.3047C138.721 12.6719 137.221 12.3555 135.533 12.3555C131.818 12.3555 129.961 14.3301 129.961 18.2793C129.961 22.9551 131.818 25.293 135.533 25.293C137.221 25.293 138.721 25.0645 140.033 24.6074V13.3047ZM143.285 26.8926C141.047 27.6309 138.287 28 135.006 28C129.51 28 126.762 24.8008 126.762 18.4023C126.762 12.4961 129.68 9.54297 135.516 9.54297C137.109 9.54297 138.615 9.83594 140.033 10.4219V2.86328H143.285V26.8926ZM156.17 9.54297C161.42 9.54297 164.045 12.1387 164.045 17.3301C164.045 18.0684 163.992 18.8594 163.887 19.7031H150.932C150.932 23.4766 153.135 25.3633 157.541 25.3633C159.639 25.3633 161.502 25.1289 163.131 24.6602V27.2969C161.502 27.7656 159.521 28 157.189 28C150.85 28 147.68 24.8535 147.68 18.5605C147.68 12.5488 150.51 9.54297 156.17 9.54297ZM150.932 16.9961H160.916C160.846 13.7617 159.264 12.1445 156.17 12.1445C152.889 12.1445 151.143 13.7617 150.932 16.9961ZM168.422 28V9.54297H170.619L171.199 11.8984C172.816 10.3281 174.762 9.54297 177.035 9.54297V12.25C174.832 12.25 173.045 13.0293 171.674 14.5879V28H168.422Z" fill="#E63946"/>
</svg>
